<svg xmlns="http://www.w3.org/2000/svg" width="1043" height="265"><path fill="#ADF233" d="M787 1h65a22292 22292 0 0 0 103 0c25-1 47 6 65 24a78 78 0 0 1 23 56v8a12016 12016 0 0 0 0 20v149h-85V108c-13 2-13 2-25 6l-3 1c-27 11-54 28-66 55-5 13-6 27 0 40l6 8 2 2c8 8 19 11 30 11 5 0 8-2 13-3l4-1c-2 6-5 9-9 14l-1 2a68 68 0 0 1-42 22 83 83 0 0 1-64-19l-2-1a75 75 0 0 1-22-50 73 73 0 0 1 23-59l2-2c19-21 50-30 76-37l3-1 38-8-134-1V1Z"/><path fill="#243BE1" d="M8 1h65a22292 22292 0 0 0 103 0c25-1 47 6 65 24 14 15 23 34 23 54v10a12016 12016 0 0 0 0 20v149h-85V108c-13 2-13 2-25 6l-3 1c-27 11-54 28-66 55-5 13-6 27 0 40a39 39 0 0 0 8 10c8 8 19 11 30 11 5 0 8-2 13-3l4-1c-2 6-5 9-9 14l-1 2a68 68 0 0 1-42 22 83 83 0 0 1-64-19l-2-1a75 75 0 0 1-22-50 73 73 0 0 1 23-59l2-2c19-21 50-30 76-37l3-1 38-8L8 87V1ZM672 0a4286 4286 0 0 0 24 0h53v86h-20a9690 9690 0 0 0-54 0c-15 0-28 2-40 13-9 9-12 21-11 33 0 11 6 21 14 28s17 9 27 9h3a3920 3920 0 0 0 31 1h50v86h-35a3981 3981 0 0 0-46 1 125 125 0 0 1-132-123c1-15 1-29 5-43l1-2c9-32 31-59 60-75 22-12 45-15 70-14ZM308 1h86v101h2v-3c1-27 8-58 27-79l2-2c9-10 23-16 36-17h61v85h-62c-18 1-35 3-49 16a73 73 0 0 0-16 50v3a3014 3014 0 0 0-1 37v64h-86V1Z"/></svg>