<svg xmlns="http://www.w3.org/2000/svg" width="1043" height="265"><path fill="#F47A20" d="M156 38c16-1 28 4 41 12l7 4 3 2a242 242 0 0 0 22 13l5 2v2h2l9 5 2 1 13 9v2h2v2l3 1 5 7 1 1 6 15 1 3c3 18 0 35-10 50l-5 6h-2l-1 2-4 5-3 1-2 2-2 1-6 4-2 1c-5 4-10 4-16 3-3-2-5-4-6-7v-10c4-5 9-8 14-11 5-2 8-5 11-8h2l1-2 3-5c3-6 3-11 3-18v-2c0-9-2-15-8-22v-2h-2v-2l-2-1-9-5-2-1a1172 1172 0 0 1-37-22l-10-6-5-2c-8-5-18-6-27-4-6 2-12 5-17 10h-2l-1 2-3 6c-6 10-5 22-5 33a3231 3231 0 0 1 0 39c0 15 1 28 12 40 9 7 21 10 32 9l16-8c6-4 10-6 17-5 4 1 5 3 7 6 1 4 2 8 0 13-2 3-5 4-8 6l-2 1-5 3-3 2c-10 5-17 6-28 6h-4c-11 0-20-2-29-8l-2-2-5-3-2-2c-10-7-17-21-20-33v-12a1641 1641 0 0 1 0-71v-2c0-5 0-9 2-14h2v-2c0-10 11-19 18-26 10-8 22-13 35-14Z"/><path fill="#F37622" d="m265 44 19 13 3 2 2 2v2h2l5 6 2 2c8 12 14 24 18 38l1 3 1 10 1 6v9l-1 4v6c-2 23-15 45-32 61l-25 17-2 1c-5 3-5 3-8 3v2l-2 1-25 14-6 2v2l-3 1-4 2-2 1-8 5-7 3-7 3h-9a402561764 402561764 0 0 0-34 0h-10l-4-2-4-1-17-8-4-2v-2l-2-1-8-4-2-2-2-2v-2h-2v-2l-4-2v-2h-2l-3-3-1-3-2-2-1-2c-10-14-10-14-10-21h-2c-3-7-3-14-4-21v-3a879 879 0 0 1 0-23v-3l1-7c3-3 5-4 10-5 5 1 8 3 11 6l1 8v4l1 7a69 69 0 0 0 7 33v2l2 6h2l1 3c6 9 13 15 22 21l2 2c7 4 13 6 20 8l4 1c22 5 43-2 62-13a739 739 0 0 0 35-21l6-3 2-1c20-11 34-26 41-48l1-3 1-4c5-20-1-38-10-56l-3-6h-2c-5-5-5-5-5-8l-2-1-7-5-16-10c-3-2-6-3-7-7h-2c-1-10-1-10 2-14 9-6 16-3 25 3Z"/><path d="m828 92 7 1a53 53 0 0 1 32 14l4 4v2h2l2 3h2l3-4 9-8h2v-2c11-7 25-12 38-9h5c16 2 29 13 39 24l2 6h2c6 9 6 18 5 28a1858 1858 0 0 0 0 18v39h-18l-3-1a112 112 0 0 1 0-11 1421 1421 0 0 0-1-41c0-8 0-16-5-23l-3-6-2-1-4-3c-9-6-18-7-29-6-9 2-16 7-22 13-7 11-8 23-8 36a1491791044 1491791044 0 0 0-1 43h-21v-6a4925 4925 0 0 0-1-46 48 48 0 0 0-4-22c-3-5-6-8-11-12l-3-2c-9-5-20-6-29-3-4 1-7 2-10 5l-4 1v2l-2 2-7 11-1 2-1 10v3a14598 14598 0 0 0-1 20v35h-23V96l7-1h15v10l4-1v-2c9-5 16-8 26-9l8-1ZM516 55h22v153h-22l-1-5v-3l-2 1-3 2-2 1c-4 3-7 4-11 4h-9a1127 1127 0 0 1-15 1c-20 0-20 0-28-7l-3-2-7-7-2-2a55 55 0 0 1-14-41c0-7 1-13 4-20l1-3c7-15 20-26 35-32 16-5 31-4 47 3v2h2l7 4v-2a10500 10500 0 0 1 0-35v-9l1-3Zm-66 72c-7 8-10 18-9 28 0 4 1 7 3 11l1 2c4 9 10 14 19 19l2 1 12 1h3c5 0 9 0 13-2v-2h4v-2h2c6-2 9-8 12-13 5-10 5-22 2-33-4-9-12-16-21-20-16-5-31-2-43 10ZM688 94l3-1c10 0 18 3 27 8l2 2 2 1v2h2v-8l1-3h18l4 2v14a2543 2543 0 0 1 0 86v8l-1 3h-22l-1-8-2 1-3 2-2 1c-4 3-7 4-11 4h-8a1026 1026 0 0 1-15 1c-10 0-18 0-27-7l-3-2v-2l-2-1c-4-1-5-3-7-7l-2-1c-8-12-8-12-10-19l-1-2c-4-18 0-34 9-49 3-5 7-9 12-13h2v-2l4-3 3-1c9-5 17-7 28-6Zm-29 32c-9 11-10 22-9 36 2 8 6 14 12 19h2v2h3v2c9 5 19 5 29 4 5-1 9-4 13-6v-2l2-1 6-5 1-3c6-8 7-17 5-27-2-11-8-20-18-26h-3v-2c-15-5-31-3-43 9Z"/><path fill="#F47A20" d="m178 85 8 4a1110 1110 0 0 1 12 7v2h2l5 2v2h2l5 2v2h2l9 5 2 1c6 3 12 8 14 14 0 7 1 13-3 19-6 8-17 13-26 18h-3v2l-2 1a315 315 0 0 0-27 16l-5 2c-6 4-12 5-19 4l-8-5-3-2v-2h-2c-4-6-3-11-3-18v-3c0-8 0-8 2-12 4-4 7-4 12-4s6 2 9 5l1 9v6l2-2a335 335 0 0 1 42-24l3-1 4-1v-2h-2l-7-4-2-1-3-2a8186 8186 0 0 0-26-14v-2h-2l-9-4v2c0 10 0 10-3 14-3 3-6 4-11 4-5-2-7-4-10-8l-1-11v-3c0-9 3-14 9-20 12-8 21-5 32 2Z"/><path fill="#F5831F" d="M141 0h9a1616 1616 0 0 1 30 0h3l4 2 4 1 19 8v2h2l7 4 3 1c6 5 6 5 7 9 0 7 0 7-3 11-4 3-7 4-12 4l-13-7a78 78 0 0 0-48-11h-3c-15 1-30 9-41 20l-4 1-1 2-4 6c-6 7-10 15-12 24l-2 3-1 7v2l-1 19c0 4 0 8-2 12-4 4-7 5-13 5-3 0-5-1-8-4l-1-11a186679883 186679883 0 0 0 0-26v-3c1-7 2-12 5-18l2-5 1-3h2v-4h2v-2c4-12 18-24 28-31l2-1 13-8 2-1c5-3 10-4 15-5 4-1 4-3 9-3Z"/><path d="M622 92c2 2 1 3 1 6a360884345 360884345 0 0 0 0 8v6l-1 3-6 1c-11 2-17 5-25 13-5 8-7 14-7 23v8a5167 5167 0 0 1-1 41v4l-1 3h-21V95h21c2 3 1 6 1 10l2-1c11-9 23-13 37-12ZM381 95h17c2 3 2 5 2 8v9a2332 2332 0 0 1 0 83v8l-1 5h-22a26812 26812 0 0 1 0-107v-2c0-3 1-4 4-4ZM395 55l7 7c1 5 1 10-1 14-3 3-5 6-9 6-6 0-10 0-15-4-4-4-3-9-3-15h2l1-2c3-8 11-7 18-6Z"/></svg>