<svg xmlns="http://www.w3.org/2000/svg" width="4163" height="3233"><path fill="#F69E1B" d="M1280 0h13a1137 1137 0 0 1 232 21h3a1171 1171 0 0 1 153 40 1153 1153 0 0 1 257 115l3 2c35 21 69 43 102 67l2 2 33 24 4 2 6-4 2-1 2-2 5-4 2-2a874 874 0 0 1 82-57l2-2c31-19 62-37 94-54l3-2a1245 1245 0 0 1 172-74c87-31 177-52 416-71h13c41-1 82 1 123 5l3 1a1399 1399 0 0 1 470 142l8 4a1096 1096 0 0 1 45 26 1286 1286 0 0 1 294 238l2 2 2 2a257 257 0 0 1 23 26 263 263 0 0 1 18 22 554 554 0 0 1 21 26 1374 1374 0 0 1 102 151l2 3a1804 1804 0 0 1 67 134c22 52 41 105 56 160l1 3c23 84 37 170 43 258v3a784 784 0 0 1 2 86c0 42-1 83-5 124l-1 3c-10 99-31 196-157 499l-5 9a990 990 0 0 1-71 110l-2 2a1133 1133 0 0 1-86 108l-14 14a1164 1164 0 0 0-32 35l-13 12-12 13-15 13-9 9a260 260 0 0 1-25 22 261 261 0 0 1-23 19l-25 20-2 2a1476 1476 0 0 1-194 124l-4 2a916 916 0 0 1-60 29c-33 16-67 29-101 41l-2 1c-88 31-180 52-335 69l-3 1-23 1h-3l-59 1h-11c-27 0-53 0-80-2h-4a929 929 0 0 1-22-2c-94-8-187-26-277-55l-2-1-34-11-2-1a1190 1190 0 0 1-243-115l-3-2c-25-15-50-32-74-49l-2-2-46-34-14 10c-13 11-26 20-40 29l-8 6a846 846 0 0 1-39 26 1395 1395 0 0 1-122 70c-75 38-154 67-464 129h-2a1141 1141 0 0 1-217 0c-97-8-193-28-408-104l-2-1c-27-12-54-24-81-39l-8-4a1087 1087 0 0 1-158-101l-2-2a1160 1160 0 0 1-111-92l-2-2a616 616 0 0 1-50-50l-13-14-9-9a260 260 0 0 1-21-25 261 261 0 0 1-20-23 957 957 0 0 1-50-65l-28-41a1747 1747 0 0 0-22-33l-2-4-20-34-2-3c-43-76-78-156-163-526l-1-3-1-19v-4a1141 1141 0 0 1-2-96c0-26 0-53 2-79v-3l2-20v-3c8-91 25-181 56-278l1-2c15-47 32-93 53-138l2-3a1110 1110 0 0 1 71-135l2-3a1221 1221 0 0 1 82-118l1-2a942 942 0 0 1 40-48l15-17a220 220 0 0 0 17-19l2-1a303 303 0 0 1 15-17l16-16a2553 2553 0 0 0 47-44 295 295 0 0 1 25-22l14-13 8-6 25-20 3-2 29-22 2-2c57-41 117-77 180-109l3-2a1173 1173 0 0 1 161-66c94-33 193-53 301-63h3a957 957 0 0 1 102-4Z"/><path fill="#EA001A" d="M1280 0h13a1137 1137 0 0 1 232 21h3a1171 1171 0 0 1 153 40 1153 1153 0 0 1 257 115l3 2c35 21 69 43 102 67l2 2 36 27c-2 4-5 7-8 9l-2 2-12 10-15 12a882 882 0 0 1-34 30l-41 40-7 7-7 7-3 3a233 233 0 0 0-17 19c-4 2-6 6-9 9l-7 7a301 301 0 0 0-18 22 324 324 0 0 0-17 20 692 692 0 0 0-53 69l-31 46-2 3-32 52-6 10a6117 6117 0 0 0-27 51 820 820 0 0 0-26 54c-15 32-28 65-40 98l-1 2a1145 1145 0 0 0-40 139l-1 2a3911 3911 0 0 0-4 20 1186 1186 0 0 0-28 268v4a1257 1257 0 0 0 27 267l1 4 11 46v2a963 963 0 0 0 48 149l24 57 2 3a1194 1194 0 0 0 127 222l2 3 5 6 2 3a5349 5349 0 0 0 59 74 917 917 0 0 1 34 39l7 7 5 6a266 266 0 0 0 29 30 20269 20269 0 0 0 44 40 797 797 0 0 0 61 51c-1 4-2 5-4 7l-3 2-2 1-2 2a1170 1170 0 0 1-42 30l-8 6a846 846 0 0 1-39 26 1395 1395 0 0 1-122 70c-75 38-154 67-464 129h-2a1141 1141 0 0 1-217 0c-97-8-193-28-408-104l-2-1c-27-12-54-24-81-39l-8-4a1087 1087 0 0 1-158-101l-2-2a1160 1160 0 0 1-111-92l-2-2a616 616 0 0 1-50-50l-13-14-9-9a260 260 0 0 1-21-25 261 261 0 0 1-20-23 957 957 0 0 1-50-65l-28-41a1747 1747 0 0 0-22-33l-2-4-20-34-2-3c-43-76-78-156-163-526l-1-3-1-19v-4a1141 1141 0 0 1-2-96c0-26 0-53 2-79v-3l2-20v-3c8-91 25-181 56-278l1-2c15-47 32-93 53-138l2-3a1110 1110 0 0 1 71-135l2-3a1221 1221 0 0 1 82-118l1-2a942 942 0 0 1 40-48l15-17a220 220 0 0 0 17-19l2-1a303 303 0 0 1 15-17l16-16a2553 2553 0 0 0 47-44 295 295 0 0 1 25-22l14-13 8-6 25-20 3-2 29-22 2-2c57-41 117-77 180-109l3-2a1173 1173 0 0 1 161-66c94-33 193-53 301-63h3a957 957 0 0 1 102-4Z"/><path fill="#FE5900" d="M2081 274a4175 4175 0 0 1 132 121 254 254 0 0 1 18 19l1 2 2 2a258 258 0 0 1 23 25 263 263 0 0 1 19 23 545 545 0 0 1 20 24 949 949 0 0 1 37 49l31 47 2 3 36 59 8 14a508 508 0 0 1 27 51c10 18 18 37 26 56a446 446 0 0 0 13 32l8 18a855 855 0 0 1 37 110 1342 1342 0 0 1 30 127v2a1284 1284 0 0 1 16 347l-1 3c-6 72-19 143-37 212l-1 3-10 37-7 22-12 36-1 2-14 37-1 2a13655 13655 0 0 1-4 10c-15 38-31 75-50 111l-1 2a1179 1179 0 0 1-188 270l-14 15a1184 1184 0 0 0-35 36l-2 2-7 7-1 2a221 221 0 0 1-18 16 160 160 0 0 1-16 15 300 300 0 0 1-24 21 331 331 0 0 1-22 19l-3 2-6 5-3 2-3 2-4 2-1 2v-2l-2-1-6-4-1-1-3-2-2-2-4-3-8-7a913 913 0 0 1-90-82 4663 4663 0 0 0-13-12l-2-3a222 222 0 0 1-16-17 151 151 0 0 1-15-16 303 303 0 0 1-20-24 324 324 0 0 1-17-20 775 775 0 0 1-38-48l-1-2-6-8-1-2-25-35-2-3-25-39-2-3-29-50-2-3c-24-44-45-89-65-136l-1-2-20-53-1-3a1045 1045 0 0 1-34-113 1100 1100 0 0 1-35-219v-3c-3-32-3-64-3-97v-3a1090 1090 0 0 1 3-101c6-69 17-136 33-202l1-3a804 804 0 0 1 16-59l20-60 1-2a1131 1131 0 0 1 99-214l2-3a1193 1193 0 0 1 67-104l2-2 21-28 3-4 7-9 1-2a1025 1025 0 0 1 78-90l15-15a16168 16168 0 0 0 49-48l2-2 2-1a585 585 0 0 1 61-53l3-2 3-4Z"/><path d="m471 2904 7 7 2 2 16 20c4-1 4-2 7-5 23-31 56-47 94-52a152 152 0 0 1 116 30l2 2c25 20 36 53 40 84v28a9027 9027 0 0 0 0 25v19a27562 27562 0 0 1 0 65v2a280470 280470 0 0 0 0 95h-84v-18a50182 50182 0 0 0-1-168 137 137 0 0 0-7-49c-5-16-16-28-31-36-22-10-48-9-70-1-8 3-14 8-20 14l-4 1-1 2-4 6c-15 19-17 44-17 68a7204 7204 0 0 1 0 22v17a24991 24991 0 0 0-1 142h-76v-18a49683 49683 0 0 0-1-167c0-24-2-49-17-69l-2-2c-9-13-26-19-41-21-22-3-47 0-65 14l-3 2a83 83 0 0 0-26 57v13a3368 3368 0 0 0 0 31v17a51490 51490 0 0 0-1 143h-76v-344h76l1 40 8-10c19-22 47-35 76-37 36-2 74 4 103 29ZM3887 2746h76v480h-76l-1-39-8 10a118 118 0 0 1-89 36c-51 1-95-14-132-50-35-35-50-84-49-133 1-51 20-96 57-132 33-32 79-44 125-43 37 1 69 17 94 44l2 3 1-176Zm-173 231c-10 12-17 27-22 42v2a119 119 0 0 0-4 36c0 26 8 51 25 71l2 3c18 21 46 31 73 34a100 100 0 0 0 70-25c21-18 34-46 36-73 2-33-5-65-27-91a100 100 0 0 0-56-31c-36-7-72 6-97 32ZM3180 2906l2 1 14 15 1-40h76v344h-76l-1-39-6 7a119 119 0 0 1-89 39h-2a1674 1674 0 0 1-14 0c-15 0-30-1-45-6l-2-1c-9-2-16-5-24-9l-2-1a155 155 0 0 1-45-33c-12-11-21-25-29-40l-1-2c-12-23-19-50-19-76v-2a222 222 0 0 1 5-57c7-31 23-57 44-81l2-2 19-16 2-1c54-40 138-44 190 0Zm-148 63-3 2c-21 21-31 51-32 80-1 31 9 60 31 83 19 19 46 30 74 31 27 0 51-11 70-30l2-2c20-19 29-50 30-77 1-32-11-62-33-85a97 97 0 0 0-67-27c-27 0-52 7-72 25ZM1084 2906l16 16 1-40h76v344h-76l-1-39-9 11a119 119 0 0 1-86 35h-2c-18 0-35 1-52-4l-3-1a170 170 0 0 1-125-148v-2c-6-50 6-101 37-140a220 220 0 0 1 18-19c50-54 151-60 206-13Zm-151 63-3 2c-21 21-31 51-32 80-1 32 10 61 32 85 20 18 48 29 75 29 27-1 49-12 68-30l2-2c20-19 29-50 30-77 1-32-11-62-33-85a97 97 0 0 0-67-27c-27 0-52 7-72 25ZM2202 2910l3 2c33 29 49 74 52 117v57h-253c5 19 10 33 22 48l2 2c17 20 44 29 68 31 37 2 73-10 103-31l9-4a198355 198355 0 0 1 22 33l2 2a1391 1391 0 0 1 8 13l2 2 1 4-7 7-2 1c-38 27-83 39-130 39h-2c-46 0-89-14-123-46l-3-3a148 148 0 0 1-30-42 209 209 0 0 1 5-186c7-12 15-23 25-33l2-2a142 142 0 0 1 41-29c16-8 34-13 52-16h2c46-7 93 4 129 34Zm-171 58c-12 14-24 34-24 53h177l-2-17-1-3c-7-22-20-40-41-52a95 95 0 0 0-109 19ZM1404 2875h3c44 0 99 6 135 35l-6 15-2 3a1418 1418 0 0 1-23 44 36 36 0 0 1-12-4l-3-1a224 224 0 0 0-97-22c-18 0-37 3-51 15-6 6-9 13-9 22 0 7 3 12 8 17a65 65 0 0 0 31 12l27 3c40 4 84 11 115 39l3 3a79 79 0 0 1 16 21c8 14 10 29 10 44v4c0 27-11 49-30 68l-2 2c-23 22-56 31-86 36h-2c-62 10-134-3-185-40l4-9 2-3a9363 9363 0 0 1 19-30l1-3 10-14 12 7c23 13 46 22 72 26h2c31 5 67 4 94-14 6-5 10-12 12-20 1-7 0-12-4-18-17-19-49-22-72-24-17-2-34-4-50-8l-2-1c-30-7-59-22-75-50-12-20-14-48-8-71 8-24 22-46 44-60l2-1c29-18 63-24 97-23ZM1670 2778h76v104h121v69h-122v56a26072 26072 0 0 1 1 89c0 19 1 38 14 52 10 10 23 12 37 12 20 0 38-5 56-14 2-2 4-2 7-3 13 35 13 35 18 53l1 3 1 3 1 3 1 4c-26 13-55 24-85 24h-2a1586 1586 0 0 1-13 0c-31 1-61-8-84-29-12-14-19-31-24-48v-3a188 188 0 0 1-4-48v-29a18515 18515 0 0 1 0-125h-68v-69h68v-104ZM2883 2914l-8 16-3 5-2 4-11 19a20020 20020 0 0 1-11 18l-14-8c-28-18-62-28-96-21-27 6-51 21-67 45-17 28-20 63-13 94 5 18 12 34 25 48l2 2c17 18 42 27 67 28 22 1 45-4 65-14l2-1 23-14 5-2 6 7 2 5 1 2 9 15a2621 2621 0 0 1 12 20l1 2 4 5 1 5-4 5-2 1-2 2-3 1a184 184 0 0 1-115 30c-33 0-65-7-94-23l-2-1c-10-5-18-12-26-19l-2-2c-33-27-50-71-54-113a191 191 0 0 1 43-144l2-2c27-29 63-46 102-52h2c54-9 113 1 155 37ZM2510 2875h10c11 0 23 0 34 2l-5 22a5982 5982 0 0 0-11 35v2a3856 3856 0 0 1-3 9l-2 5-20-3c-23-4-46-6-66 7a78 78 0 0 0-30 52c-3 21-2 44-2 65v16a24163 24163 0 0 0-1 139h-76v-344h76l1 40 8-11c23-27 53-37 87-36ZM3532 2875h3a2362 2362 0 0 1 16 0c13 0 25 1 37 3a417 417 0 0 1-12 40l-3 11-6 20h-11l-3-1h-4c-25-6-47-6-70 7l-2 1c-13 9-20 24-24 37v2a150 150 0 0 0-4 48v34a27269 27269 0 0 0-1 149h-76v-344h76l1 38 9-11c8-9 16-16 27-22l3-2c14-7 29-10 44-10Z"/><path fill="#FE4C11" d="m1995 350 1 3-2 2a772 772 0 0 0-40 39l-2 2a221 221 0 0 0-16 18l-13 14-3 3-2 2c-2 2-2 2-5 2l1-1 11-12 11-12a2698 2698 0 0 0 37-39l8-7 14-14Z"/><path fill="#FD4911" d="M1690 792c1 4 0 7-2 12v2l-7 15-4 11h-2a161 161 0 0 1 11-30l4-10Z"/><path fill="#FE4A12" d="m1809 571 1 2-2 3-3 4-1 2-6 9-3 3 5-9 1-3 2-2 2-3 4-6Z"/><path fill="#FC4412" d="M1631 968h1l-2 15v3l-4 6 3-16 1-3 1-5Z"/><path fill="#FD4912" d="M1650 902h1c0 5-1 9-3 14l-1 3-1 2v-6l1-2v-3l1-2 2-6Z"/><path fill="#FE4A12" d="m2010 336-2 6-3 3-2 1-4 4-3-1 3-2 3-3 2-2 6-6Z"/><path fill="#FE4A11" d="M1912 437c0 4-1 5-4 8l-2 2-2 2-2-1 10-11Z"/></svg>