<svg xmlns="http://www.w3.org/2000/svg" width="1043" height="265"><path fill="#2465AF" d="M728 46h3a1247 1247 0 0 1 30 0c1 4 3 8 3 13l1 3a47358 47358 0 0 1 5 21l2 13a40535 40535 0 0 1 14 65v3a39324 39324 0 0 1 10 47l1 8h-42l-5-25h-57l-3 11-3 7-1 3-2 4a72 72 0 0 1-7 0h-7a5047 5047 0 0 1-34 1l6-17 1-2 2-5 6-14 1-3a4341 4341 0 0 0 27-62l1-3a11384 11384 0 0 1 20-49c3-7 7-14 14-18 5-2 9-1 14-1Zm1 49a36737 36737 0 0 0-20 55l-2 7h35l-4-25-1-3a7589 7589 0 0 0-7-34h-1Z"/><path fill="#2565AF" d="M246 46a6263 6263 0 0 1 71 0h2c6 0 11 2 16 6 4 4 5 9 6 15l1 3a989 989 0 0 1 8 40v3a33664 33664 0 0 1 10 47l6-17 3-9 13-35 5-13a9553 9553 0 0 0 9-25l1-3 1-3 4-9h49a243 243 0 0 1-7 20l-4 8a16341 16341 0 0 0-7 16l-9 24-6 13-2 5-36 87h-48l-4-14-1-2-1-3v-2l-3-9a24616 24616 0 0 0-6-24l-7-26a30405 30405 0 0 1-10-41l-1-2a4921 4921 0 0 0-4-17l-1-4-1-6a195937409 195937409 0 0 1-47-19v-4Z"/><path fill="#2465AF" d="M647 50a186 186 0 0 1-4 27l-2 11-2-1c-17-5-35-9-53-3-5 2-5 2-7 7-1 5 0 7 3 11l5 3 3 2 9 6c17 9 34 19 41 38 3 12 1 25-5 36l-5 8-2 3a83 83 0 0 1-66 24h-3c-17 0-31-3-47-9a284 284 0 0 1 6-40l8 3c17 7 37 11 54 6 4-2 8-3 11-7v-13c-6-7-16-12-24-16-15-8-28-17-35-33-4-12-1-27 4-38 10-16 26-24 43-29l3-1c22-5 45-3 65 5Z"/><path fill="#2465B0" d="M467 46h47l-2 13a1435416 1435416 0 0 0-26 160l-47 1a8682 8682 0 0 1 28-174Z"/><path fill="#E3A444" d="M246 46a6263 6263 0 0 1 71 0h2c6 0 11 2 16 6 4 5 5 9 7 16a66946 66946 0 0 0 10 53l1 3v3a216004780 216004780 0 0 1-1 7c-5-10-10-19-17-28l-1-2a151 151 0 0 0-51-39c-12-6-24-11-37-15v-4Z"/><path fill="#376184" d="M293 69a78 78 0 0 1 13 8l4 4c-4-1-7-3-10-6l-6-1-1-5Z"/><path fill="#C5A465" d="m349 126 4 1 1 9-3-3-1-3v-2l-1-2Z"/></svg>