<svg preserveAspectRatio="none" width="100%" height="100%" overflow="visible" style="display: block;" viewBox="0 0 50 50" fill="none" xmlns="http://www.w3.org/2000/svg">
<g id="mynaui:message-solid">
<path id="Vector" d="M24.9024 4.6875C20.0753 4.6875 16.3232 4.6875 13.4024 5C10.4482 5.31875 8.10866 5.97917 6.24199 7.47083C4.32533 9.00417 3.42949 10.9979 3.00658 13.5125C2.60449 15.9125 2.60449 18.9667 2.60449 22.775V23.1562C2.60449 26.8687 2.60449 29.4375 3.02116 31.3521C3.24616 32.3833 3.60033 33.2792 4.15658 34.1083C4.70658 34.925 5.40658 35.6125 6.24199 36.2792C7.55658 37.3312 9.10658 37.9667 10.9378 38.3625V43.75C10.9381 44.0237 11.0102 44.2926 11.1471 44.5297C11.2839 44.7668 11.4807 44.9638 11.7176 45.1009C11.9545 45.238 12.2233 45.3105 12.4971 45.3111C12.7708 45.3117 13.0399 45.2403 13.2774 45.1042C14.4982 44.4062 15.5795 43.6458 16.5691 42.9292L17.2024 42.4687C17.9071 41.9412 18.6268 41.434 19.3607 40.9479C21.1191 39.8063 22.7982 39.0625 25.0003 39.0625H25.0982C29.9253 39.0625 33.6774 39.0625 36.5982 38.75C39.5524 38.4312 41.892 37.7708 43.7587 36.2792C44.592 35.6125 45.2941 34.925 45.842 34.1083C46.4003 33.2792 46.7545 32.3833 46.9795 31.3521C47.3962 29.4375 47.3962 26.8687 47.3962 23.1562V22.775C47.3962 18.9667 47.3962 15.9125 46.9941 13.5146C46.5712 10.9979 45.6753 9.00417 43.7587 7.47083C41.892 5.97708 39.5524 5.31875 36.5982 5.00208C33.6774 4.6875 29.9253 4.6875 25.0982 4.6875H24.9024Z" fill="var(--fill-0, #1E1E1E)"/>
</g>
</svg>
