<?xml version="1.0" encoding="utf-8"?>
<!-- Generator: Adobe Illustrator 18.0.0, SVG Export Plug-In . SVG Version: 6.00 Build 0)  -->
<!DOCTYPE svg PUBLIC "-//W3C//DTD SVG 1.1//EN" "http://www.w3.org/Graphics/SVG/1.1/DTD/svg11.dtd">
<svg version="1.1" id="Слой_1" xmlns="http://www.w3.org/2000/svg" xmlns:xlink="http://www.w3.org/1999/xlink" x="0px" y="0px"
	 viewBox="0 0 913.5 169.5" enable-background="new 0 0 913.5 169.5" xml:space="preserve">
<g>
	<g>
		<path d="M145.2,64.1H105v-5.7c0-5.3-2.3-9.2-7-11.5c-3.8-1.8-9.4-2.7-17-2.7c-10.5,0-17.3,2-20.5,6c-2.6,3.4-3.9,10.7-3.9,21.8
			v22.8c0,12.2,1.1,20.1,3.3,23.6c3.1,4.9,10.1,7.4,21,7.4c9,0,14.9-0.9,17.9-2.7c4-2.5,6-7.7,6-15.6v-4.3h40.1v4.3
			c0,20.4-4.2,34.2-12.6,41.4c-8.4,7.2-24.1,10.8-47.3,10.8c-16.4,0-28.2-0.8-35.5-2.5c-10.9-2.6-19-7.7-24.4-15.2
			c-6-8.6-9-21.4-9-38.4V65.8c0-22.5,6.1-37.7,18.3-45.8c9.7-6.5,26.6-9.7,50.5-9.7c20.5,0,35.3,3.3,44.4,9.9
			c10.3,7.4,15.4,20.1,15.4,38.2V64.1z"/>
		<path d="M205.6,43.4v26.9h62.4v27.1h-62.4v28.5h67.8v32H166.6V11.5H272v32H205.6z"/>
		<path d="M298.1,11.5H364l43.3,112.6l-2.1-112.6h39v146.3h-66.5L335,45.2l2.1,112.6h-39V11.5z"/>
		<path d="M538.2,45.4v112.4h-39V45.4h-39.4V11.5h117.7v33.9H538.2z"/>
		<path d="M633.1,43.4v26.9h62.4v27.1h-62.4v28.5h67.8v32H594.1V11.5h105.4v32H633.1z"/>
		<path d="M765.4,11.5v55.1h11.7l37.6-55.1h47.2l-51.4,71.9l55.7,74.4h-48.3l-40.7-57.3h-11.7v57.3h-39V11.5H765.4z"/>
	</g>
	<g>
		<path d="M906.6,27.9c0,9.5-7.5,17-17.2,17c-9.6,0-17.3-7.5-17.3-17c0-9.3,7.7-16.8,17.3-16.8C899.2,11.1,906.6,18.6,906.6,27.9z
			 M876.4,27.9c0,7.5,5.5,13.4,13.1,13.4c7.4,0,12.8-5.9,12.8-13.3c0-7.5-5.4-13.5-12.9-13.5C882,14.5,876.4,20.5,876.4,27.9z
			 M886.8,36.7h-3.9V19.9c1.5-0.3,3.7-0.5,6.5-0.5c3.2,0,4.6,0.5,5.8,1.2c0.9,0.7,1.6,2,1.6,3.7c0,1.8-1.4,3.3-3.5,3.9v0.2
			c1.6,0.6,2.6,1.8,3.1,4.1c0.5,2.6,0.8,3.6,1.2,4.2h-4.2c-0.5-0.6-0.8-2.2-1.3-4.1c-0.3-1.8-1.3-2.7-3.5-2.7h-1.8V36.7z
			 M886.9,27.2h1.8c2.2,0,3.9-0.7,3.9-2.5c0-1.5-1.1-2.6-3.6-2.6c-1,0-1.7,0.1-2.2,0.2V27.2z"/>
	</g>
</g>
</svg>
