<?xml version="1.0" encoding="utf-8"?>
<!-- Generator: Adobe Illustrator 27.0.1, SVG Export Plug-In . SVG Version: 6.00 Build 0)  -->
<svg version="1.1" id="Layer_1" xmlns="http://www.w3.org/2000/svg" xmlns:xlink="http://www.w3.org/1999/xlink" x="0px" y="0px"
	 viewBox="0 0 164.6 68.6" style="enable-background:new 0 0 164.6 68.6;" xml:space="preserve">
<style type="text/css">
	.st0{fill:#F9B233;}
</style>
<g>
	<g id="XMLID_1297_">
		<path id="XMLID_1593_" class="st0" d="M10,26.4c0.3,0.1,0.6,0.1,0.8,0.2c0,0.3,0,0.7,0,1c0.1,0.6,0.2,1,0.2,1.5c0.1,0,0.1-1,0.2-1
			c0.3,0.2,1-0.8,1.3-0.8l0,0c-0.1,0-0.2,0.2-0.3-0.1c-0.1-0.5-0.1-0.4,0-0.8c0.2,0,0.4,0.3,0.6,0.4v0.1c-0.3,0.7,0,1.3,0.2,2
			c0,0.1,0.1,0.2,0.1,0.4c0.4,0,0.8,0,1.1,0c0.3,0,0.6-0.1,0.9-0.1c0-0.1,0-0.2,0.1-0.3c0.1-0.6,0-0.9,0.1-1.4l0,0
			c0.2,0,0.5,0.1,0.7,0.1c0,0.1,0,0.1-0.1,0.2c0,0.3,0.1,0.6,0,0.9c0,0.1-0.1,0.3-0.1,0.4c0.1,0,0.2,0,0.3,0c0.7,0,1.4,0.2,2,0.4
			c0.2-0.4,0.4-0.8,0.6-1.2c0.2,0,0.4,0.1,0.6,0.1l0,0c-0.2,0.6-0.6,1.2-0.8,1.8c-0.3,0-0.5,0-0.8,0c0.1-0.1,0.1-0.3,0.2-0.4
			c-0.7,0-1.5,0.2-2.4,0.2c0,0,0,0,0,0.1c-0.2,0-0.3,0-0.5,0c-1.3-0.1-2.6-0.2-3.8-0.3c-0.1,0-0.1-0.1-0.2-0.1v0.1
			c-0.2,0-0.3,0-0.5,0c0-1-0.5-2-0.6-3.1C10,26.6,10,26.5,10,26.4z"/>
		<path id="XMLID_1313_" class="st0" d="M54.8,31.6c-0.5,1.9-0.7,4.2-1.1,6.2s0.4,1.6,0,3.6c-0.4,1.8-0.7,5-1.3,6.7
			c-0.7,1.7-0.1,5.5-1.5,6.4c-0.7,0.5-3.6,5.4-6.2,8.1c-0.6,0.6-4.9,3.2-5.6,3.6c-1.6,0.9-6,2.3-7.9,2.4c-0.9,0-7.5-0.3-8.2-0.2
			c-0.9,0.2-6.2,0.5-7.7-0.4c-1.3-0.8-6.7-1.7-7.2-2.2c-0.8-0.9-2.3-3-2.8-4.1c-0.7-1.4-3.6-3.3-3.9-4.9c-0.3-2-1.2-4.7-1.4-6.7
			s0.3-11,0-14.3c-0.1-0.9,0-5.2,0-6c0-0.9,0-3,0-3.9c0.1-2,0.8-4.7,1.2-6.6c0.1-0.5-1.4-1.8-1.1-2.3c0.3,0.1,2.4,0.2,2.6,0.3
			c0.5-0.2,1-0.4,1.6-0.5c0.5-0.1,1,0,1.5-0.1c0.3,0,0.7,0.1,0.9,0.1c0.4,0,0.7-0.3,1.2-0.4c0.5,0,0.3,0,0.8,0.1
			c0.1,0,0.4,0.1,0.5,0.1c-0.7-0.6-0.3-1.4-0.9-2.2C8,14,8,13.6,7.8,13.1c-0.2-0.3-1.3-1.2-1.5-1.4s0.1-0.2,0.1-0.5
			c0-0.6,0-0.7,0.5-1c0.1-0.1,0.7,0,0.8,0C7.9,9.8,7.8,9.4,8,8.9c0.2-0.8,0.1-0.2,0.4-1c0.5-1.4,2.2-2.9,3.3-3.6
			c2.8-1.6,2-0.9,5.1-1.7c0.8-0.2,4.3-1.2,5.1-1.6c0.7-0.3,2.8-0.5,3.6-0.8c1.3-0.5,1.9-0.2,2.9,1.1c0.3,0.4,2.4,1.4,2.8,1.8
			c0.6,0.6,2.7,0.2,3.5,0.3c1.8,0.3,1.1,0.2,2.9,0.3c1.7,0.1,2.4,0.1,4,0.9c0.6,0.3,1.3,2,1.9,2.5c0.6,0.6,1.7,1.8,2.3,2.4
			c1,1.3,1.8,1.6,2.9,2.8c1,1,0.9,1.2,1.7,2.4c0.6,0.9,0.7,0.4,0.9,1.5c0,0.3-2,0.5-2,0.8s4.6-0.5,4.7-0.2c0.1,0.9-0.7,0.4-0.8,1.1
			c-0.1,0.8,0.4,2.4,1.6,4.9c0.7,1.5,0.7,2.8,0.8,4.5C55.4,29.1,55.2,29.9,54.8,31.6z M7.9,61.7c-0.3-0.3-0.3-0.5-0.6-0.8
			C7.6,61.4,7.5,61.7,7.9,61.7z M4.2,53.7c0-0.9,1.1-1.8,1.2-2.6h0.5c-0.7-0.9-0.9-1.8-1.4-2.8l0.1-0.1c0,0.6,0.1,1.2,0.1,1.8
			c0,0.3,0,0.5,0,0.8c0.4,0.8-0.2,1.5,0.2,2.2C5,53.2,4.2,53.5,4.2,53.7L4.2,53.7z M6.6,49.3c0-0.6,0-1.2,0-1.7
			c-0.4-0.5-0.8-1-1.1-1.5c-0.4-0.6-0.6-1.2-0.9-1.8c-0.1,1.1,0.1,2.3,0.1,3.5c0.6,1,1.1,2.1,1.8,3l0,0C6.5,50.3,6.6,49.8,6.6,49.3z
			 M6.7,43.6c0-0.1,0-0.2,0-0.3C6.5,43,6.3,42.7,6,42.4c-0.4-0.5-0.7-1-1.1-1.6c-0.1,1-0.3,2-0.4,3c0,0,0,0,0,0.1
			c0.4,0.7,0.7,1.5,1.1,2.2c0.3,0.4,0.6,0.8,0.9,1.2C6.6,46,6.7,44.8,6.7,43.6z M9.7,47.7c0.1,0.5,0.1,1,0.1,1.5
			c-0.1,1.1-0.3,2.2-0.1,3.3c0.3,1.9,2.3,3.3,3.5,4.5c0.5,0.4,0.9,0.9,1.4,1.3c0.5,0.4,1,0.6,1.5,1l0,0c0.4,0.2,0.9,0.3,1.4,0.4
			c1.9,0.5,4.3-0.2,5.8-1.7c0,0,0,0,0.1-0.1c-0.3-0.3-0.5-0.6-0.8-0.9c-0.2-0.3-0.5-0.6-0.7-0.9c-0.4,0.1-0.9,0.2-1.4,0.3
			c-0.4,0.1-0.8,0.1-1.2,0c-0.4,0.1-0.8,0.1-1.3,0c-0.3-0.1-0.6-0.3-0.9-0.5c-0.7-0.5-1-0.6-1.8-0.7c-0.7-0.1-1-0.5-1.4-1.2
			c-0.6-1.1-1.3-2.2-2-3.3c-0.1-0.1-0.1-0.2-0.2-0.3v-0.1c0-0.1-0.1-0.1-0.1-0.2c-0.1-0.1-0.1-0.2,0-0.2c-0.1-0.5-0.1-1-0.1-1.4
			c0-1.1,0.2-2.2,0.2-3.3c0-1.4,0.1-2.9,0.1-4.3c0-0.8,0.1-1.5,0.1-2.3s-0.1-1.3-0.2-2.1c-0.1-0.6,0-1.3,0-1.9c0.1-1-0.1-2.1-0.5-3
			c-0.2-0.5-0.4-1-0.4-1.6c0.2,0,0.3,0.1,0.5,0.1c0.2,0.8,0.6,1.4,0.8,2.3c0.4,1.4,0.2,2.8,0.5,4.1s-0.2,2.4-0.3,3.7
			c-0.1,1.3,0,2.7,0,4c0,0.9,0.2,1.7,0.2,2.6c0,1-0.3,1.9-0.1,2.9c0,0.3,0.2,0.6,0.3,0.9c0.2,0.3,0.4,0.6,0.7,1
			c0.6,0.7,1.5,1.4,2.1,1.9c0.2,0.2,0.3,0.3,0.5,0.5l0,0c0.3,0,0.5,0,0.7,0.1c0.7,0.3,1.1,1,1.7,1.5c0.1,0.1,0.2,0.1,0.2,0.1
			c0.2,0,0.3,0.1,0.5,0.1l0,0c0.6,0,1.1-0.2,1.7,0c0,0,0.1,0,0.1,0.1c0.3,0,0.5-0.1,0.8-0.2c-0.3-0.4-0.8-1.3-1.3-1.5v-0.1
			c0.3,0,0.4,0.2,0.6,0.4c0.3,0.4,0.5,0.7,0.8,1.1c0.4-0.1,0.7-0.3,1-0.5c-0.1-0.1-0.1-0.1-0.2-0.2c-0.5-0.5-0.9-1-1.4-1.5
			c-0.2-0.2-0.3-0.4-0.5-0.6c-0.2,0.1-0.4,0.3-0.6,0.5c-0.6,0.4-1.6,0.2-2.2-0.1c-0.3-0.1-0.6-0.3-0.9-0.5c-1-0.5-1.9-2.1-2.4-2.9
			c-1-1.7-1.3-3.1-1.1-5.1c0.1-1.1,0.6-2.1,0.8-3.2c0.2-1.2-0.1-2.4-0.1-3.6c0-0.7-0.1-1.7-0.4-2.4c-0.2-0.5-0.5-0.6-0.6-1.1
			c-0.1-0.4-0.1-0.7-0.1-1.1c0-0.8,0-1.4-0.1-2.2c0-0.2-0.1-0.5-0.2-0.7c0.2,0,0.4,0,0.7,0.1c0,0.2,0.1,0.4,0.1,0.6
			c0.1,0.7,0.1,1.2,0.1,1.9c0,1.2,0.7,2.2,1,3.3c0.2,0.9,0.2,1.5,0.3,2.4c0.1,0.8,0.3,1.6,0.3,2.4c-0.1,2-1.7,3.9-1.4,6
			c0.2,1.1,0.9,2.2,1.4,3.1c0.1,0.2,0.3,0.4,0.4,0.7c1.2,1.1,2.5,2.4,4.1,1.4c-0.2-0.1-0.4-0.2-0.5-0.4c0,0,0-0.1,0.1-0.1
			c0.2,0.2,0.4,0.3,0.6,0.4c0,0,0,0,0.1,0c0.4-0.3,0.4-0.4,0.9-0.5c0.4-0.1,0.7-0.1,1-0.2l0,0c-0.4-0.4-0.9-0.8-1.4-1.2
			c-0.3,0.2-0.7,0.4-1.1,0.6c-1.1,0.6-1.8,0.2-2.4-0.8c-2.3-2.5,0.9-7,0.2-10c-0.2-0.9-0.5-1.7-0.7-2.5c-0.3-1.3-0.3-2.5-0.8-3.7
			c-0.4-1.1-0.7-1.8-0.7-3c0.2,0,0,0.3,0.1,0.3h-1.8v-0.5c0,0.6,1.4,1.2,1.7,1.7c0.4,0.8,1.3,1.5,1.5,2.4c0.2,1,0.5,2,0.7,3
			c0.4,1.7,0.9,2.9,0.5,4.6c-0.2,0.9-0.2,1.9-0.5,2.9c-0.4,1.7-0.9,3.7,0.5,5l0,0l0.1,0.1c0.4,0.3,0.8,0.3,1.4,0.1
			c0.2-0.1,0.5-0.1,0.7-0.2c0.1-0.1,0.2-0.1,0.3-0.2c-0.1-0.1-0.2-0.1-0.2-0.2v-0.1c0.1,0.1,0.2,0.1,0.3,0.2c0.4-0.3,0.6-0.6,0.9-1
			c-0.4-0.3-0.8-0.5-1.2-0.9V48c0.4,0.3,0.8,0.6,1.2,0.9c0.1-0.2,0.2-0.3,0.3-0.5c0.9-1.2,2.2-2,3.6-1.9c1.1,0.1,1.9,0.8,3,0.1
			c0.6-0.3,0.8-0.6,1.5-0.8c1.2-0.3,1.9-0.3,2.8-1.5c0.6-0.8,1.1-1.5,1.6-2.4c0.4-0.8,1-1.6,1.5-2.3c0.3-0.3,0.6-0.6,0.8-1
			c0.4-0.8,0.4-1.3,0.4-2.2c0-0.8,0.1-1.7,0.2-2.5c0.1-0.7,0.4-1.6,0.3-2.3c-0.1-0.6-0.4-1.1-0.5-1.6c-0.4-1.5,0.1-3.3,0.5-4.6
			c0.3-1.2,0.8-1.6,0.1-2.7c-0.2-0.3-0.4-0.3-0.6-0.7c-0.1-0.2-0.2-0.4-0.3-0.5c0,0,0,0-0.1,0c-0.6-0.1-1-0.3-1.5-0.8
			c-0.9-0.8-1.3-1.4-2.5-1.1c-0.7,0.1-1.1,0.3-1.8,0.1c-0.3-0.1-0.5-0.2-0.8-0.3c0.5,0.9,0.8,1.8,0.3,2.1c-0.1,0.1-0.2-0.1-0.1-0.2
			c0.4-0.3,0-1.2-0.5-2.1c-0.4-0.2-0.9-0.4-1.3-0.6c-0.5-0.3-0.9-0.6-1.4-0.8c0.2,0.5,0.4,1,0.6,1.4c0.4,0.9,1.1,1.7,1.5,2.7
			c0.3,0.1,0.6,0.1,1,0.1c0.5-0.2,1-0.2,1.6-0.5c0.6-0.2,1-0.6,1.7-0.4c1.2,0.4,1.9,2.3,1.8,3.5c0,0.3-0.1,0.6-0.1,1
			c0,0.8,0.4,1.2,0.5,1.9c0.1,0.9-0.3,1.6-0.4,2.5c-0.1,1,0,2.1-0.3,3.1c-0.2,1-0.6,1.8-0.9,2.8c-0.5,1.7-1.1,3.7-2.1,5
			c-0.4,0.5-0.9,0.9-1.4,1.3c-0.6,0.5-1.3,1.1-2,1.4c-1.7,0.7-3.5,0.2-5.1,1.3c-0.6,0.4-1,0.6-1.5,1.1c-0.2,0.2-0.4,0.4-0.6,0.5
			c-0.5,0.2-0.9,0.2-1.3,0c-0.5,0.1-0.9-0.5-1.1-1.3c-0.5-2,0.9-4,1.2-5.9c0.1-1,0-2.1-0.1-3.1c-0.1-0.5-0.1-1.4-0.5-1.8
			c-0.1-0.2-0.6-0.2-0.8-0.3c-0.9-0.7-1.1-2.1-0.9-3.3c0.3,0,0.5,0,0.8,0c-0.3,1-0.2,2,0.9,2.7c1,0.6,0.9,1.3,1,2.6
			c0.1,1.2,0.2,2.6-0.1,3.8c-0.2,0.7-0.4,1.5-0.7,2.3c-0.1,0.4-0.3,0.8-0.4,1.2c-0.1,0.5-0.2,1.9,0.1,2.5h0.1
			c0.8,0.2,1.5,0.1,2.1-0.5c0.2-0.2,0.3-0.3,0.5-0.5c0.5-0.4,1-0.7,1.5-1c1.2-0.7,2.6-0.6,3.8-0.8c1.3-0.3,2.2-1.4,3.2-2.3
			c1.2-1,1.9-2.5,2.4-4.1c0.5-1.5,1.1-3,1.2-4.7c0.1-0.9,0-1.8,0.1-2.7c0.1-0.8,0.4-1.2,0.1-2.1c-0.2-0.6-0.3-1-0.4-1.7
			c0-1.1,0.1-1.8-0.5-2.7c-0.7-1-1.3-0.7-2.2-0.5c-0.2,0.1-0.5,0-0.8,0l-0.1,0.1c-0.5,0.1-0.9,0.2-1.4,0.2c0.1,0.4,0.2,0.8,0.2,1.3
			c0.2-0.1,0.4-0.1,0.6-0.2c1.1-0.2,2.5,0,2.7,1.5c0.1,0.8,0,1.6,0.1,2.4c0.1,0.5,0.2,1.1,0.2,1.6c0,0.7,0.2,1.9,0,2.5
			c-0.3,0.9-1.2,1.9-1.7,2.6c-0.6,1-1.2,2-1.8,2.9c-0.7,1-1.1,2.1-1.9,3c-0.7,0.7-1.8,1.6-2.7,1.9c-1.3,0.5-2.6,0.9-2.7-0.8
			c-0.3-0.6-0.4-1.5-0.4-2.2c0.1-1.5,0.6-2.8,0.5-4.4c-0.1-0.9-0.2-1.4-0.9-1.9c-0.3-0.2-0.6-0.3-0.8-0.6c-0.2-0.4-0.2-1-0.1-1.5
			c0.1,0,0.2,0,0.4,0c0.2,0,0.2-0.4,0-0.4c-0.1,0-0.2,0-0.3,0c0.1-0.5,0.4-0.9,0.6-1.3c0-0.1,0.1-0.2,0.1-0.3c0.2,0,0.4,0.1,0.6,0.1
			c-0.1,0.3-0.2,0.6-0.4,0.9c-0.3,0.6-0.6,1.5-0.2,2.1c0.2,0.3,0.8,0.4,1,0.7c0.5,0.5,0.4,0.7,0.4,1.4c0,1.1,0.2,2.2-0.1,3.3
			c-0.1,0.7-0.7,2.4-0.5,3.6c0.1,0,0.1,0,0.2,0.1c0.1,0.3,0.1,0.5,0.3,0.6s0.4,0.2,0.7,0.3c0.1,0,0.1,0.1,0.1,0.1
			c1.4,0.1,3.9-2.1,4.5-2.9c1.1-1.6,2-3.4,3-5.1c0.6-1,1.4-1.9,1.5-3c0.1-0.9,0.1-1.9,0-2.8c0-0.5-0.1-1.1-0.1-1.6
			c-0.1-1.3-0.2-1.9-1.5-1.9c-0.9,0-1.7,0.5-2.6,0.7c-0.1,0-0.2,0-0.4,0.1c0.1,0.2,0.1,0.4,0.2,0.6c0,0.1-0.1,0.2-0.2,0.1
			c-0.1-0.2-0.2-0.4-0.2-0.6c-0.4,0-0.8,0-1.1-0.1s-0.6-0.2-0.8-0.3c0.2,0.5,0.4,1,0.6,1.5c0,0.2-0.2,0.2-0.2,0
			c-0.1-0.6-0.4-1.1-0.6-1.6c-0.1,0-0.2-0.1-0.2-0.1c-0.2-0.1-0.9-0.3-1.1-0.3c-1,0.1-1.5,2.3-1.8,3.1c-0.1,0.3-0.2,0.6-0.3,0.9
			c-0.2-0.1-0.4-0.2-0.6-0.2v-0.1c-0.1,0-0.2,0-0.3,0c-1.9-0.6-3.8-1-5.7-1.4c-2-0.4-4.1-1.4-6.2-1.7c0,0.1-0.2-0.6-0.2-0.6l0,0
			c-0.4,0-0.7,0.4-1.1,0.3v0.3c0,0.1,0,0.3,0,0.4v0.1c0.2,0.6,0.4,1.2,0.7,1.7c0.1,0.1-0.1,0.3-0.2,0.1C8,27.3,7.9,27,7.8,26.7
			c0,0,0,0,0,0.1c0.2,1,0.3,1.8,0.3,2.7c0.1,1.2,0.8,2,1,3.1c0.4,1.6,0.2,3.2,0.6,4.8c0.3,1.5-0.2,2.8-0.3,4.4
			c0,0.6-0.1,1.1-0.1,1.7c0.2,0.4,0.3,0.9,0.6,1.3c0,0,0,0.1-0.1,0c-0.2-0.3-0.4-0.7-0.5-1.1c0,0.9,0,1.8,0,2.7c0,0.5,0,0.9,0.1,1.4
			C9.7,47.6,9.7,47.6,9.7,47.7L9.7,47.7z M23.4,57.9c0.3-0.3,0.6-0.5,0.9-0.6l-0.1-0.1c-0.4-0.5-0.8-1-1.2-1.5
			c-0.1,0.1-0.3,0.1-0.4,0.2c-0.2,0.1-0.4,0.2-0.7,0.3c0.1,0.1,0.2,0.3,0.3,0.4C22.6,57,23,57.5,23.4,57.9z M21.6,49.3
			c-0.2,0.3-0.4,0.6-0.7,0.8c-0.1,0.1-0.2,0.2-0.3,0.2c0.5,0.4,1,0.8,1.5,1.3c0.4-0.1,0.8-0.3,1.3-0.6l0,0
			C22.8,50.4,22.3,49.8,21.6,49.3L21.6,49.3z M22.8,55.3c0.3-0.2,0.7-0.5,0.9-0.8c0.2-0.2,0.4-0.4,0.6-0.5c-0.2-0.2-0.5-0.4-0.7-0.5
			c-0.4-0.4-0.8-0.7-1.1-1.1c-0.4,0.1-0.7,0.2-1.1,0.3c-0.3,0.1-0.5,0.2-0.7,0.3l0.1,0.1c0.6,0.7,1.1,1.3,1.7,2
			C22.7,55.1,22.7,55.2,22.8,55.3z M25.6,17.5c-1.1-0.1-1.6,0.5-2.3,1.1c0.2,0.5,0.4,0.9,0.5,1.4c0.5,0,0.9,0,1.3,0.2
			c0-0.1-0.1-0.1-0.1-0.2c-0.2-0.3-0.7-1.6-1-1.6l0,0c0.1,0,0.1,0,0.2,0l0,0c0.2,0.7,0.6,1.3,1,1.9c0.2,0.1,0.3,0.3,0.5,0.5
			c0.3,0.5,0.7,0.7,1.2,0.6c0.1,0,0.3,0,0.4,0c0.3,0.1,0.5,0.2,0.8,0.3c0.1,0,0.1,0.1,0.2,0.1c-0.1-0.2-0.2-0.4-0.3-0.6
			c-0.4-0.6-0.7-1.2-1-1.8c-0.2-0.5-0.4-1-0.6-1.4c0,0-0.1-0.1-0.2-0.2C26.2,17.6,25.9,17.6,25.6,17.5z M26.8,24.5
			c0.1,0,0.3,0,0.4,0c-0.3-0.8-0.7-1.6-1.1-2.4c-0.2-0.1-0.3-0.2-0.5-0.3c-0.4-0.3-0.9-0.5-1.4-0.7c0.1,0.4,0.3,0.9,0.4,1.3
			c0.2,0.6,0.4,1.1,0.6,1.6C25.7,24.2,26.3,24.4,26.8,24.5z M28.9,23.6c0.1,0.1,0.1-0.5,0.1-0.5c0-0.2-0.1-0.4-0.2-0.6
			c-0.1,0-0.1,0-0.2,0c-0.2,0-0.4-0.1-0.6-0.2c-0.9-0.2-0.9,0-1.6-0.1c-0.1,0-0.1,0-0.2,0c0.4,0.8,0.7,1.5,1.1,2.3
			c0.6-0.1,1.1-0.4,1.7-0.6c-0.1,0-0.1-0.1-0.2-0.1C28.8,23.7,28.9,23.6,28.9,23.6z M24.3,22.3c-0.1-0.4-0.3-0.8-0.4-1.2
			c-0.3,0-0.6,0-0.9,0.1c-0.9,0.2-1,1.1-1.4,1.8c-0.3,0.5-0.8,0.6-1,1.2c-0.2,0.5-0.2,1.3-0.4,1.9c-0.1,0.4-0.2,0.8-0.3,1.2H20
			c0.5,0.1,1,0.1,1.4,0.4l0,0c0.4-1.1,1.1-4.1,2.5-3.8c0.3,0.1,0.7,0.2,1,0.3C24.7,23.4,24.5,22.8,24.3,22.3z M19.9,24.2
			c0.1-0.5,0.2-0.7,0.5-1c0.4-0.5,0.8-0.8,1.1-1.4c0.1-0.3,0.2-0.6,0.5-0.8c0.4-0.4,1-0.7,1.6-0.8c-0.2-0.4-0.3-0.9-0.4-1.3
			C23.1,19,23.1,19,23,19.1c-0.4,0.3-1,0.4-1.5,0.4c-1.1,0.1-2.1-0.3-2.6,1c-0.4,1-0.2,1.8-0.3,2.9c0,0.7-0.4,1.1-0.7,1.7
			c-0.3,0.5-0.6,0.9-0.9,1.3c0.8,0.2,1.6,0.4,2.4,0.7C19.6,26.1,19.7,25.2,19.9,24.2z M40.4,22.2c-0.4,2.1,0.3,4.2,0.4,6.4
			c0,0.9,0,1.8,0,2.8c0,0.5,0,1-0.1,1.4c-0.2,0.8-0.6,0.8-0.5,2c0.1,1.1,0.1,2-0.3,3c-0.1,0.3-0.3,0.9-0.5,1.2
			c-0.2,0.5-0.3,1-0.5,1.5c-0.2,0.6-0.5,1-0.6,1.6c-0.2,0.7-0.4,0.9-0.8,1.5c-0.3,0.5-0.5,1-0.8,1.5c0,0.1,0.1,0.2,0.1,0.4
			c0.2,0.6,0.4,1.1,0.6,1.7c0.4-0.6,0.7-1.3,1.2-1.7c0-0.1,0-0.1,0.1-0.2c0.7-0.3,1.4-0.6,1.8-1.3c0.2-0.4,0.5-0.9,0.7-1.4
			c0.1,0.2,0.3,0.3,0.4,0.5c-0.1,0.2-0.2,0.4-0.3,0.7c-0.6,1.1-1.1,1.5-2.1,1.7c-0.5,0.6-0.9,1.5-1.2,2.1c-0.1,0.2-0.2,0.3-0.3,0.4
			c0.1,0.2,0.1,0.3,0.2,0.5c0.2,0.5,0.4,1.1,0.6,1.8c0.1-0.1,0.2-0.2,0.3-0.4c0.6-0.7,1-1.8,1.7-2.4c0-0.1,0-0.1,0.1-0.2
			c0.8-0.4,1.6-0.7,2.2-1.5c0.2-0.3,0.4-0.6,0.5-1c0.2,0.2,0.3,0.3,0.5,0.5c0,0.1-0.1,0.1-0.1,0.2c-0.7,1.3-1.3,1.7-2.5,2
			c-0.6,0.6-1,1.7-1.4,2.4c-0.3,0.6-0.7,0.8-1.1,1.3c0.2,0.8,0.4,1.5,0.5,2.3c0.3-0.6,0.7-0.9,1.1-1.4c0.7-0.8,1.2-2.1,2-2.7
			c0-0.1,0-0.2,0.1-0.2c0.9-0.5,1.9-0.7,2.4-1.7c0.4-0.6,0.8-1.5,1.1-2.1c0.5-1.3,0.2-2.6,0.5-4c0.1-0.6,0.4-1.1,0.6-1.7
			c0.2-0.7,0.3-1.3,0.4-2c0.2-1,0.5-1.7,0.5-2.7c0-0.8-0.2-1.6-0.2-2.4c0-1.4,0.4-2.6,0.6-3.9c0.3-1.7-0.2-3.8-0.9-5.4
			c-0.6-1.5-0.6-2.6-0.5-4.1c0-0.6-0.1-1.3,0-1.9c0-0.5,0.1-1.6-0.2-2.4c-1.7-1.3-3.5-2.7-5.4-3.8C41.2,11,41,11,40.9,10.9
			c0.1,0.2,0.2,0.3,0.2,0.5c0.4,0.9,1.1,1.9,1.2,2.9c0,0.2-0.2,0.2-0.2,0c-0.1-0.9-0.7-1.8-1.1-2.6c-0.2-0.3-0.3-0.7-0.5-1
			c-0.6-0.3-1.2-0.7-1.7-1.1c0.5,0.9,0.9,1.8,1.2,2.8c0.1,0.2-0.2,0.3-0.2,0.1c-0.4-1.1-0.9-2.2-1.4-3.3c-0.6-0.5-1-1-1.7-1.3
			c0.4,1,0.7,2,1,3c0,0.2-0.2,0.3-0.2,0.1c-0.3-1.1-0.7-2.2-1.1-3.2c-0.1,0-0.2-0.1-0.3-0.1c-0.7-0.2-1.4-0.3-2.1-0.4
			c0.5,0.7,0.8,1.5,1,2.3c0.7,0.2,1.3,0.5,1.8,1c0.9,1,1.9,1.7,3,2.3c0.5,0.3,1,0.5,1.4,0.9c0.5,0.4,1,0.6,1.5,0.9
			c0.7,0.4,1.2,0.9,1.8,1.5c0.1,0.1,0.1,0.1,0.2,0.2c0.1,0.1,0.1,0.2,0.2,0.3c0.1,0.1,0.1,0.2,0.1,0.2c0.2,0.5,0.3,1,0.3,1.4
			c0,0.7,0,1.4,0.1,2.1c0.1,1-0.1,1.9,0.2,2.9c0.3,0.8,0.7,1.5,0.8,2.3c0.1,0.7,0,1.3,0,2c0.1,1.6-0.4,2.8-0.6,4.4
			c-0.1,0.9,0.1,1.8,0,2.8c0,0.9-0.1,1.8-0.1,2.6c-0.1,1.5-0.7,2.8-0.9,4.2c-0.1,0.7,0,1.2-0.3,1.8c-0.2,0.5-0.4,1-0.6,1.4
			c-0.2-0.2-0.3-0.4-0.5-0.6c0-0.1,0.1-0.1,0.1-0.2c-0.1,0-0.2,0-0.2,0s0,0-0.1-0.1c-0.8-0.9-1.5-1.8-2.3-2.7c0-0.1-0.1-0.3-0.1-0.4
			c0-0.3,0.3-0.3,0.4-0.1c0.1,0.1,0.1,0.3,0.2,0.4c0-0.6,0-1.2,0.1-1.9c0.1-0.4,0.3-0.9,0.4-1.3c0.2-0.5,0.2-1,0.3-1.5
			c0.2-0.7,0.4-1.3,0.4-2.1c0-0.6-0.2-1.2-0.2-1.8c0-1,0.3-1.9,0.4-2.9c0.2-1.3-0.2-2.9-0.6-4.1c-0.4-1.1-0.4-1.9-0.4-3.1
			c0-0.5-0.1-1,0-1.4c0-0.4,0.1-1.2-0.1-1.8c-1.3-1-2.6-2-4-2.8c-0.7-0.4-1.3-0.7-2-1.2s-1.1-1.2-1.9-1.4c-0.9-0.2-1.9-0.4-2.9-0.3
			c-0.7,0.1-1.4,0.3-2.1,0c-1.2-0.5-2.9-2.4-4.2-1.8c0,0.1,0,0.1,0,0.2c-0.7,0.5-1.4,0.6-2.3,0.9c-0.8,0.3-1.5,0.5-2.3,0.6
			c-0.8,0.2-1.7,0.3-2.6,0.3c-1.2,0-1.5,1.3-1.8,2.5c-0.2,0.8-0.6,1.1-1.1,1.6c-0.7,0.7-0.7,1.6-1.2,2.4c-0.3,0.4-0.6,0.8-1,1.1
			c-0.2,0.4-0.5,0.9-0.7,1.3c-0.5,0.8-0.8,1.6-1,2.5c0.6,0.1,1.3,0.2,1.9,0.3c0.1-0.1,0.1-0.2,0.2-0.3c0.2-0.5,0.2-1,0.3-1.5
			c0.2-0.6,0.7-1.1,1.1-1.6c0.8-0.9,1.3-1.8,1.8-2.9c0.3-0.7,0.4-1.6,0.7-2.3c0.3-0.5,0.7-0.8,1.2-0.8c0.5-0.1,1.1,0.1,1.6,0.1
			c0.3,0,0.6-0.1,0.9-0.1c0.8-0.3,1.3-0.8,2-1.5c0.6-0.6,1.2-1,1.9-0.8c0.9,0.2,1.9,0.5,2.7,0.9c0.4,0.2,0.7,0.6,1.2,0.8
			c0.3,0.1,0.9,0.1,1.2,0.1c1,0.1,1.9,0,2.9,0.2c0.8,0.2,1.2,0.5,1.9,1c0.5,0.3,0.6,0.7,1,1.1c0.6,0.7,1.9,0.5,2.7,0.9
			C39.7,19.3,40.8,20.4,40.4,22.2z M35,4.4c-0.7-0.1-1.3-0.2-2-0.3c0.2,0.5,0.3,0.9,0.5,1.4c0.1,0.1,0.1,0.3,0.2,0.4
			c0.8,0,1.5,0.2,2.3,0.4c0,0,0,0,0.1,0c-0.2-0.3-0.4-0.6-0.6-1c-0.1-0.2-0.2-0.5-0.4-0.7C35.1,4.6,35.1,4.5,35,4.4z M28.8,3.2
			c0.2,0.5,0.5,1.1,0.7,1.6c0.2,0.4,0.4,0.8,0.7,1.2c0.4,0.1,0.8,0.1,1.3,0c-0.1-0.2-0.1-0.3-0.2-0.5c-0.3-0.6-0.6-1.3-0.9-1.9
			C29.8,3.6,29.3,3.5,28.8,3.2z M30.8,7.4C30.9,7.8,31,8.2,31,8.6c0,0.1-0.2,0.2-0.2,0c0-0.4-0.1-0.9-0.3-1.3c-0.3,0-0.6-0.1-1-0.2
			c-0.2-0.1-0.6-0.3-1-0.6c0.1,0.4,0.3,0.7,0.5,1c0.1,0.1-0.1,0.2-0.2,0.1c-0.3-0.4-0.5-0.9-0.6-1.3c-0.7-0.5-1.5-1.1-2.3-1.4
			c0.1,0.3,0.2,0.6,0.3,0.9c0,0.1-0.1,0.2-0.2,0.1c-0.1-0.4-0.2-0.7-0.4-1.1c-0.6-0.2-1.1-0.3-1.7,0c0,0.1,0,0.2,0,0.2
			c-0.1,0.1-0.1,0.1-0.2,0.1c0.2,0.5,0.4,1,0.7,1.4c0.1,0.1-0.1,0.2-0.2,0.1c-0.3-0.5-0.5-0.9-0.7-1.5c-0.8,0.5-1.7,0.6-2.6,0.9
			c-0.3,0.1-0.7,0.2-1,0.3c0.1,0.3,0.2,0.6,0.3,0.9c0,0.1-0.1,0.2-0.2,0.1c-0.1-0.3-0.2-0.6-0.3-0.9c-0.6,0.3-1.2,0.4-1.8,0.6l0,0
			c0.4,0.8,0.7,1.7,0.8,2.6c0.9-0.1,1.8-0.3,2.7-0.6c0.8-0.3,1.6-0.5,2.4-0.8c1.1-1.4,2.7-0.5,4.1,0.2c0.5,0.2,0.9,0.5,1.4,0.7
			c0.8,0.4,1.5,0.3,2.3,0.1c0.4-0.1,0.8-0.1,1.3-0.1c-0.3-0.7-0.5-1.3-0.8-2C31.5,7.3,31.2,7.3,30.8,7.4z M25.3,4
			c-0.3-0.7-0.6-1.5-0.9-2.2c-0.5,0.2-1,0.5-1.5,0.7c0,0.2,0.1,0.5,0.2,0.7c0.1,0.4,0.2,0.8,0.4,1.3C24.1,4,24.7,3.9,25.3,4z
			 M12.8,5.3C13,5.7,13.2,6,13.3,6.4c0.1,0.1,0.1,0.2,0.2,0.4c0.7-0.2,1.5-0.1,2.3-0.1c-0.1-0.2-0.1-0.3-0.2-0.5
			c-0.2-0.5-0.4-1-0.6-1.4C14.2,4.8,13.5,5,12.8,5.3z M11.3,21.2c-0.4-0.6-0.7-1.1-1-1.8c0,0,0,0,0-0.1c-0.1,0.1-0.2,0.2-0.3,0.3
			c-0.2,0.3-0.5,0.5-0.8,0.8c-0.1,0.2-0.1,0.3-0.2,0.5c0.2,0.4,0.4,0.8,0.6,1.2c0.1,0.1-0.1,0.2-0.1,0.1c-0.2-0.4-0.4-0.7-0.6-1.1
			c-0.2,0.4-0.4,0.8-0.7,1l0,0c0,0.1-0.1,0.3-0.1,0.4c0.4,0.8,0.8,1.6,0.8,2.5c0.3,0,0.6,0,0.9,0.1c0-0.3,0-0.5,0.1-0.8
			c0.2-1,0.9-1.9,1.6-2.7c0.4-0.9,1.1-1.5,1.4-2.4c0.3-0.8,0.5-1.5,1-2c0.3-0.4,0.7-0.7,0.9-1.2c0.2-0.4,0.2-0.9,0.5-1.2
			c0.3-0.5,0.8-1.2,1.3-1.5c0.6-0.3,1.5-0.1,2.2-0.2c1.1-0.1,2.2-0.3,3.3-0.7c0.7-0.2,1.3-0.5,2-0.6c0.9-1.2,2.3-0.4,3.5,0.2
			c0.4,0.2,0.8,0.4,1.2,0.6c0.7,0.3,1.2,0.2,2,0.1c1-0.1,1.9,0,2.9,0.2c0.6,0.2,1.2,0.4,1.6,0.9c0.8,0.8,1.6,1.4,2.6,1.9
			c0.4,0.2,0.8,0.5,1.2,0.8s0.9,0.5,1.3,0.8c0.6,0.4,1.1,0.8,1.5,1.3c0.1,0.1,0.1,0.1,0.1,0.2c0.1,0.1,0.1,0.2,0.2,0.2
			c0,0.1,0.1,0.1,0,0.2c0.2,0.4,0.2,0.9,0.2,1.2c0,0.6,0,1.2,0.1,1.8c0.1,0.8-0.1,1.6,0.2,2.4c0.2,0.7,0.6,1.3,0.7,2
			c0.1,0.6,0,1.1,0,1.7c0.1,1.3-0.4,2.4-0.5,3.7c-0.1,0.8,0,1.6,0,2.4c0,0.8,0,1.5-0.1,2.3c0,1.3-0.6,2.4-0.7,3.6
			c-0.1,0.6,0,0.9-0.2,1.4c0.1,0.1,0.2,0.2,0.4,0.4c0.4,0.5,0.8,1,1.2,1.5l0.1,0.1c0.4-1.1,0.1-2.2,0.4-3.4c0.1-0.5,0.3-1,0.5-1.5
			c0.2-0.6,0.2-1.1,0.4-1.7c0.2-0.8,0.4-1.5,0.4-2.4c0-0.7-0.2-1.4-0.2-2.1c0-1.2,0.3-2.3,0.5-3.4c0.3-1.5-0.2-3.4-0.7-4.8
			c-0.5-1.3-0.5-2.3-0.5-3.7c0-0.6-0.1-1.1,0-1.7c0-0.5,0.1-1.4-0.1-2.1c-1.5-1.2-3.1-2.4-4.7-3.3c-0.8-0.4-1.6-0.9-2.3-1.4
			c-0.8-0.6-1.3-1.4-2.2-1.6c0,0.1,0,0.1,0,0.2c0,0.1-0.1,0.1-0.2,0c0-0.1,0-0.2,0-0.2c-1.1-0.3-2.2-0.4-3.2-0.3
			c-0.8,0.1-1.7,0.3-2.5,0c-1.4-0.6-3.4-2.8-5-2.1c0,0.1,0,0.2,0,0.2c-0.8,0.6-1.7,0.7-2.6,1c-0.9,0.3-1.8,0.5-2.7,0.7
			c-0.1,0-0.1,0-0.2,0v0.1c0,0.1-0.2,0.1-0.2,0c0,0,0,0,0-0.1c-0.4,0.1-0.8,0.1-1.2,0.2c0,0.1,0.1,0.2,0.1,0.3
			c0.1,0.1-0.1,0.2-0.2,0.1c0-0.1-0.1-0.2-0.1-0.3c-0.4,0-0.8,0.1-1.2,0.1c-0.3,0-0.5,0-0.7,0.1c0.3,0.7,0.5,1.4,0.6,2.1
			c0,0.1-0.2,0.2-0.2,0c-0.1-0.7-0.3-1.4-0.6-2c-0.7,0.5-1,1.5-1.2,2.5c0.1,0.4,0.3,0.8,0.3,1.2c0,0.2-0.2,0.2-0.2,0
			c0-0.3-0.1-0.5-0.2-0.8c-0.2,0.7-0.7,1.1-1.2,1.6s-0.7,1.2-1,1.9c0,0-0.9,0.1-0.8,0.1c0.1,0.2,0.1,0.5,0,0.7
			c0.2,0.2,1.3,0.4,1.4,0.6c0.1,0.1-0.1,0.2-0.1,0.1c-0.1-0.2-1.2-0.4-1.4-0.6c-0.2,0.3,0.4,0.5,0.1,0.6c-0.2-0.1-0.5-0.1-0.7-0.1
			c0.1,0.2,0.2,0.4,0.3,0.7c0.3,0.7,0.6,1.3,1,1.8C11.5,21.1,11.4,21.2,11.3,21.2z M6.5,19.6c-0.2,0.4-0.4,0.7-0.7,1c0,0,0,0-0.1,0
			c0,0.1-0.1,0.3-0.1,0.4c0.2,0.4,0.3,0.8,0.6,1.2c0.4,0.7,0.7,1.3,1.1,2c0-0.1,0-0.3,0.1-0.4c0.1-0.6,0.3-1.1,0.5-1.6
			c-0.2-0.3-0.3-0.6-0.5-0.8C7.1,20.8,6.8,20.2,6.5,19.6z M5.4,21.7c-0.3,1-0.3,1.9-0.2,2.8c0.7,1.4,1.5,2.7,2.3,3.9
			c0.1,0.1-0.1,0.3-0.2,0.1c-0.8-1.1-1.4-2.2-2.1-3.4c0,0.1,0.1,0.3,0.1,0.4c0.3,1.1,0.3,2,0.4,3.1l0,0c0.6,1,1.2,1.9,1.7,2.9
			C7.7,32,8,32.6,8.3,33.1c0.2,0.4,0.4,0.8,0.6,1.2c0-1.1-0.2-2.1-0.6-3.1c-0.4-0.8-0.5-1.6-0.6-2.5c0-1-0.2-1.8-0.4-2.7
			c-0.1-0.6-0.2-1.1-0.1-1.6c-0.3-0.7-0.7-1.3-1-1.9c-0.3-0.5-0.5-1-0.7-1.5C5.5,21.4,5.4,21.6,5.4,21.7z M6.5,36.5
			c-0.2-0.4-0.5-0.7-0.7-1.1C4.9,34,4.2,32.5,3.4,31c0.2,0.8,0.3,1.6,0.6,2.4c0.2,0.7,0.5,1.3,0.6,2.1C5.1,36,5.6,36.4,6,37
			c0.2,0.2,0.3,0.5,0.4,0.7c0.1,0.3,0.2,0.5,0.3,0.8c0-0.2-0.1-0.5-0.1-0.8C6.5,37.3,6.5,36.9,6.5,36.5z M3,28.7
			c0.1,0.6,0.1,1.1,0.2,1.7c0,0.1,0.1,0.1,0.1,0.2s0.1,0.1,0.1,0.2l0,0c0.9,1.6,1.7,3.4,2.7,4.9c0.1,0.1,0.2,0.3,0.3,0.4
			c0-0.3,0-0.6,0.1-1c0-0.5,0-1,0-1.5C6,32.8,5.5,32,5,31.1c-0.5-0.9-1.1-1.8-1.7-2.7c-0.1-0.2-0.3-0.5-0.4-0.7
			C3,28.1,3,28.4,3,28.7z M7.3,34.7c0.5,0.8,1,1.6,1.5,2.4c0.1,0.1-0.1,0.2-0.2,0.1c-0.4-0.7-0.9-1.4-1.3-2.1
			c0.1,0.9,0.1,1.8,0.3,2.6c0,0.1,0,0.1,0,0.2c0,0.1,0.1,0.1,0.1,0.2c0.5,0.7,0.9,1.5,1.1,2.3c0,0.1-0.2,0.1-0.2,0
			c-0.2-0.8-0.6-1.5-1-2.2c0,0.5,0,1,0,1.5c0.4,0.6,0.8,1.1,1.2,1.8C8.9,41.7,9,41.8,9.1,42c0-0.8,0.1-1.6,0.1-2.5S9.1,37.9,8.9,37
			c-0.1-0.7,0-1.5,0-2.2c0-0.1,0-0.1,0-0.2c-0.2-0.3-0.4-0.8-0.6-1.1c-0.3-0.6-0.7-1.3-1-1.9c-0.5-0.9-1-1.7-1.5-2.5
			c0.2,1.1,0.8,1.9,1.1,3C7.2,33.1,7.3,33.9,7.3,34.7z M4.7,25.3c-0.1-0.5-0.2-1-0.2-1.5c0,0,0-0.1-0.1-0.1c-0.3-0.7-0.7-1.4-1.1-2
			c-0.2-0.4-0.5-0.9-0.6-1.3c0,1,0.1,2,0.2,3c0.2,1.6,1.3,3.1,2.2,4.5C5.1,26.9,4.9,26.2,4.7,25.3z M7.5,25.4c-0.2,0-0.2,0.2,0,0.3
			c0.1,0,0.2,0,0.2,0.1C7.7,25.7,7.6,25.6,7.5,25.4L7.5,25.4z M8.1,23.1c0,0.1-0.1,0.2-0.1,0.3c-0.1,0.6-0.2,1.2-0.2,1.7l0,0
			c0.4,0,0.7,0,1.1,0c-0.1-0.8-0.4-1.5-0.7-2.3C8.1,22.9,8.1,23,8.1,23.1z M10.9,16.3L10.9,16.3c-0.2-0.8-0.6-1.6-1-2.4
			c-0.1,0.3-0.2,0.6-0.4,0.9C10,15.4,10.4,15.9,10.9,16.3z M10,13.8c0.4,0.7,0.7,1.5,0.9,2.2c0.2-0.5,0.5-1.1,0.9-1.5
			c0.1-0.1,0.2-0.2,0.3-0.4c-0.2-0.4-0.4-0.8-0.6-1.2c-0.1-0.3-0.2-0.5-0.4-0.8c-0.2,0.2-0.4,0.5-0.7,0.7
			C10.4,13.1,10.2,13.4,10,13.8L10,13.8z M11.8,12.7c0.2,0.4,0.4,0.8,0.6,1.3c0.2-0.2,0.4-0.5,0.5-0.8s0.2-0.6,0.3-0.9l0,0
			c-0.3-0.7-0.6-1.5-0.8-2.3c0-0.1-0.1-0.2-0.1-0.3c-0.1,0.3-0.2,0.6-0.2,1c-0.1,0.6-0.3,0.9-0.6,1.3C11.5,12.2,11.7,12.5,11.8,12.7
			z M12.8,10.7c0.1,0.4,0.3,0.8,0.5,1.2c0-0.1,0.1-0.1,0.1-0.2c0.3-0.6,0.8-1.3,1.4-1.7c-0.3-0.6-0.6-1.3-0.9-1.9
			c-0.1-0.2-0.2-0.4-0.3-0.6c-0.6,0.3-1,1-1.2,1.8C12.6,9.8,12.7,10.2,12.8,10.7z M14.3,8.5c0.2,0.5,0.5,1,0.7,1.5
			c0.5-0.2,1.3-0.2,1.9-0.1c-0.3-0.8-0.6-1.7-0.9-2.5c-0.5,0.1-1,0.1-1.5,0.1c-0.2,0-0.4,0-0.6,0.1C14,7.8,14.2,8.2,14.3,8.5z
			 M15.8,6.3c0,0.1,0.1,0.2,0.1,0.3c0.1,0,0.1,0,0.2,0c0.4,0,0.8-0.1,1.2-0.2c0-0.1-0.1-0.2-0.1-0.3C17,5.6,16.7,5,16.5,4.3
			c-0.4,0.1-0.9,0.2-1.3,0.3C15.4,5.2,15.6,5.7,15.8,6.3z M16.2,7.3c0.3,0.8,0.7,1.7,1,2.5c0.1,0,0.2,0,0.3,0c0.4,0,0.7-0.1,1.1-0.1
			c-0.2-0.9-0.5-1.8-0.9-2.6C17.2,7.1,16.7,7.2,16.2,7.3z M32.9,9.3c0.6,0,1.2,0.1,1.8,0.3c-0.2-0.8-0.5-1.6-0.8-2.4
			c-0.5,0-1,0-1.5,0c-0.1,0-0.2,0-0.3,0C32.4,7.9,32.7,8.6,32.9,9.3z M9.2,42.4L9.2,42.4c0-0.3-0.3-0.5-0.4-0.7
			C8.5,41.1,8,40.6,7.6,40c-0.1,0.9-0.3,1.7-0.4,2.7c0,0.4-0.1,0.7-0.1,1.1c0.6,0.9,1.3,1.7,1.9,2.6C9.1,45.1,9.2,43.7,9.2,42.4z
			 M6.8,40.5c0-0.6,0-1.1-0.1-1.7c-0.2-0.2-0.3-0.5-0.4-0.8c-0.2-0.6-0.4-1-0.9-1.5c-0.3-0.3-0.5-0.6-0.8-0.9
			c0.2,0.9,0.3,1.7,0.4,2.6c0,0.7,0,1.4-0.1,2.1c0.5,0.7,0.9,1.4,1.4,2.1c0.1,0.2,0.2,0.3,0.3,0.5C6.7,42.2,6.8,41.4,6.8,40.5z
			 M2.9,27.3c0.7,1.5,1.7,2.8,2.5,4.2c0.3,0.6,0.7,1.2,1,1.7c-0.1-0.7-0.3-1.4-0.6-2.1c-0.4-0.9-0.6-1.8-0.6-2.8c0-0.1,0-0.2,0-0.2
			c-0.5-0.8-1.1-1.6-1.6-2.5c-0.2-0.4-0.5-0.9-0.6-1.3C3,25.3,2.9,26.3,2.9,27.3z M3.9,18.6c-0.3,0-0.6,0-0.8,0
			C3,19,2.9,19.4,2.8,19.9l0,0c0.5,1.2,1.1,2.3,1.7,3.4c0-0.3,0-0.5,0.1-0.8c0.1-0.7,0.4-1.3,0.6-1.9c-0.3-0.6-0.6-1.2-1-1.7v-0.1
			c0.4,0.2,0.7,0.7,0.9,1.1c0.1,0.1,0.1,0.3,0.2,0.4c0.1-0.2,0.1-0.4,0.2-0.6c0-0.2,0.4-0.2,0.4,0c0,0.1,0,0.1,0,0.2
			c0-0.2,0.1-0.4,0.1-0.5c0.1,0,0.3,0,0.4,0c-0.1-0.2-0.2-0.4-0.3-0.7H6C5.3,18.7,4.6,18.6,3.9,18.6z M6.3,18.7
			c0.1,0.2,0.2,0.3,0.3,0.5C7,20,7.3,20.8,7.8,21.6c0.1,0.1,0.1,0.2,0.2,0.3c0.1-0.2,0.1-0.4,0.2-0.6c0-0.1,0.1-0.1,0.1-0.1
			c0.1-0.3,0.2-0.7,0.4-1c-0.3-0.6-0.6-1.1-0.8-1.7C7.2,18.6,6.8,18.6,6.3,18.7z M7.9,18.5c0.3,0.5,0.5,1,0.7,1.5
			c0.1-0.2,0.2-0.4,0.4-0.7c0.4,0,0.9,0,1.3,0c-0.1-0.3-0.3-0.5-0.4-0.8C9.3,18.4,8.6,18.4,7.9,18.5z M8,12c0.1,0.4,0.3,0.8,0.4,1.1
			c0.1,0.2,0.2,0.4,0.4,0.7c0.2-0.4,0.3-0.7,0.5-1.1C9,12.2,8.8,11.6,8.6,11c0,0,0,0,0,0.1C8.4,11.5,8.2,11.7,8,12z M8.7,10.8
			c0.1,0.2,0.1,0.4,0.2,0.5c0.1,0.4,0.3,0.8,0.5,1.2c0.1-0.2,0.3-0.4,0.4-0.6c0.4-0.4,0.7-0.7,1-1.2v-0.1c-0.3-0.9-0.6-1.8-1-2.7
			C9.5,8.9,9.2,9.9,8.7,10.8z M10.2,7.1C10.1,7.3,10,7.5,9.9,7.8C9.9,7.9,10,8,10,8.1c0.3,0.8,0.6,1.6,0.9,2.4v0.1
			c0,0,0-0.1,0.1-0.1c0.2-0.6,0.3-1.1,0.6-1.7c0.1-0.1,0.1-0.3,0.2-0.4c-0.1-0.2-0.1-0.4-0.2-0.5c-0.3-0.5-0.4-1-0.3-1.6
			c0,0,0-0.1,0.1-0.1c0.2,0,0.3,0.1,0.3,0.4c0,0-0.1,0.1-0.1,0c-0.1,0-0.1,0.1-0.1,0.1c0,0.1,0,0.3,0,0.4s0.1,0.3,0.1,0.4
			c0.1,0.2,0.2,0.4,0.3,0.7c0.4-0.5,0.8-1.1,1.3-1.3l0,0c-0.1-0.2-0.2-0.4-0.3-0.7c-0.1-0.3-0.3-0.5-0.4-0.8c0,0,0,0-0.1,0
			C11.6,5.7,10.7,6.1,10.2,7.1z M16.7,4.3C17,5,17.3,5.7,17.6,6.4c0.7-0.1,1.3-0.2,2-0.4c-0.2-0.5-0.4-1-0.6-1.5
			c-0.1-0.2-0.1-0.5-0.2-0.8c-0.6,0.1-1.1,0.3-1.7,0.4C17,4.2,16.8,4.3,16.7,4.3z M21.4,3.1c-0.8,0.2-1.7,0.4-2.5,0.6
			C18.9,3.8,19,3.9,19,4c0.2,0.7,0.5,1.3,0.7,2c0.3-0.1,0.5-0.2,0.8-0.3c0.2-0.1,0.4-0.2,0.6-0.2l0,0C21,5,21,4.5,20.9,4
			c0-0.1,0.1-0.1,0.2,0c0.1,0.5,0.1,1,0.2,1.5c0.6-0.2,1.2-0.4,1.9-0.6c0-0.1,0.1-0.1,0.1-0.1C23.2,4.4,23,4,22.9,3.6
			c-0.1-0.3-0.1-0.6-0.2-0.8C22.4,2.8,21.9,3,21.4,3.1z M26.5,1.8c-0.5-0.5-0.3-0.5-0.9-0.3c-0.3,0.1-0.6,0.2-0.9,0.3
			c0.3,0.8,0.6,1.6,0.9,2.4c0.7,0.2,1.5,0.6,2.2,1c-0.1-0.4-0.2-0.8-0.4-1.2c-0.2-0.6-0.9-1.4-0.9-1.9c0,0-0.1,0.1-0.1,0
			c0-0.1,0-0.1-0.1-0.2C26.3,1.8,26.4,1.8,26.5,1.8c0.5,0.8,1,1.7,1.3,2.7c0.1,0.2,0.1,0.4,0.2,0.6c0.5,0.2,0.9,0.5,1.4,0.7
			C29.6,5.9,29.8,6,29.9,6c-0.2-0.3-0.3-0.6-0.5-0.9c-0.3-0.6-0.5-1.2-0.8-1.8c0-0.1-0.1-0.1-0.1-0.2C28.3,3,28,2.8,27.8,2.7
			C27.4,2.4,26.9,2.2,26.5,1.8z M30.6,3.7c0.2,0.5,0.5,1.1,0.7,1.6c0.1,0.3,0.2,0.5,0.3,0.8c0.1,0,0.3,0,0.5-0.1c0.5,0,0.9,0,1.4,0
			c-0.3-0.6-0.5-1.2-0.8-1.9C32.4,4,32,4,31.7,3.9C31.3,3.9,31,3.8,30.6,3.7z M35.3,4.4c0.4,0.6,0.7,1.4,1,2c0.4,0.1,0.7,0.3,1,0.5
			c-0.1-0.2-0.3-0.5-0.4-0.7c-0.3-0.5-0.5-1.1-0.7-1.7h-0.1C35.9,4.5,35.6,4.5,35.3,4.4z M51,25.1c-0.7-1.7-1.1-3.3-1.1-5.1
			c0-0.8-1.7-1.7-1.8-2.5c0-0.2-0.4-0.2-0.5-0.4c-0.1-0.7,1.9-1.5,1.7-2.1c-0.4-1.4-1.6-2.1-2.6-3.1s-2.2-1.7-3.2-2.7
			s-1.9-2.5-3.1-3.1c-1.4-0.7-2.5-1.4-4-1.5c0.3,0.5,0.5,1.1,0.8,1.7c0.2,0.3,0.4,0.7,0.5,1c0.1,0.1,0.2,0.2,0.4,0.3
			c0.6,0.6,1.2,1.1,1.8,1.6l0,0c-0.3-0.5-0.6-1.1-0.9-1.6c-0.3-0.6-0.7-1.4-1.3-1.5V6c1.1-0.1,1.7,1.9,2.2,2.7
			C40,9,40.2,9.2,40.3,9.5c0.4,0.3,0.8,0.5,1.2,0.7c0.6,0.3,1.1,0.6,1.6,1c0.6,0.5,1.2,0.7,1.7,1c0.7,0.5,1.4,1,2,1.7
			c0.1,0.1,0.1,0.1,0.2,0.2c0.1,0.1,0.2,0.2,0.2,0.3c0.1,0.1,0.1,0.2,0.1,0.2c0.2,0.5,0.3,1.2,0.3,1.6c0.1,0.8,0,1.6,0.1,2.4
			c0.1,1.1-0.1,2.2,0.3,3.3c0.3,0.9,0.7,1.7,0.9,2.7c0.1,0.8,0,1.5,0,2.3c0.1,1.8-0.5,3.2-0.7,4.9c-0.1,1,0.1,2.1,0.1,3.1
			s-0.1,2-0.1,3c-0.1,1.7-0.8,3.1-1,4.8c-0.1,0.8,0,1.3-0.3,2.1c-0.3,0.9-0.6,1.5-1,2.3c-0.8,1.5-1.5,2-2.8,2.3
			c-0.7,0.7-1.2,2-1.6,2.8c-0.4,0.8-0.9,1-1.4,1.7c-0.5,0.6-0.6,1.3-1,2c-0.1-0.4-0.3-0.8-0.4-1.1c0-0.1,0-0.1,0.1-0.2
			c-0.2-0.8-0.5-1.6-0.7-2.3c0,0,0,0.1-0.1,0.1c-0.1-0.4-0.2-0.8-0.3-1.2l0,0c0-0.1-0.1-0.2-0.1-0.2c-0.1-0.2-0.1-0.4-0.2-0.6
			c-0.5-2-1-3.9-1.8-5.8c-0.2-1-0.5-2.1-0.7-2.2c-0.1,0-0.1-0.2,0-0.2H35c0,0,0.1,0,0.1,0.1c0.3,0.6,0.6,1.1,0.8,1.7
			c0.1-0.3,0.2-0.5,0.3-0.8c0.4-1.2,1.4-2,1.9-3.2c0.2-0.4,0.4-1.5,0.8-2c0.1-1,0.2-2.7,0.2-2.9c0-0.6,0-1,0.2-1.6s0.6-1,0.7-1.7
			c0.1-0.6,0-1.2-0.1-1.8c-0.1-0.8-0.1-1.5-0.2-2.3c-0.3-1.9-0.6-3.5-0.5-5.4c0.1-1.5-0.5-1.9-1.6-2.5c-0.3-0.2-0.7-0.4-1-0.6
			c-0.4-0.2-0.9-0.2-1.3-0.4c-0.4-0.2-0.6-0.8-0.9-1.1c-0.3-0.2-0.7-0.4-1.1-0.6c-1.5-1-3.3-0.5-4.9-0.7c-0.6-0.1-1.2-0.5-1.8-0.6
			c-0.8-0.2-2.6-0.9-3.2-0.7c-0.7,0.2-1.1,1.1-1.8,1.4c-0.3,0.2-0.6,0.2-0.9,0.2c-0.8,0.3-1.3,0.4-2.2,0.4c-1.3,0-1.4,0.8-1.5,1.9
			c-0.2,1.4-0.7,3-1.8,3.9c-0.6,0.5-1.3,1-1.5,1.8c-0.1,0.5-0.2,0.9-0.4,1.3c0.8,0.1,1.6,0.3,2.3,0.4c0.1,0,0.2,0,0.2,0l0.1-0.1
			c0.7-0.9,1.6-1.9,1.6-3.2c0-1.1-0.2-1.9,0.1-3c0.6-2.2,1.9-1.3,3.5-1.4c1.1-0.1,1.5-0.9,2.4-1.5c0.4-0.3,1-0.3,1.6-0.3
			c0,0,0,0,0-0.1c0,0,0,0,0.1,0s0.1,0.1,0.2,0.1c0.1,0,0.1,0,0.2,0c1,0.2,1.7,0.8,2.5,1.3l0,0c-0.1-0.1,0-0.2,0.1-0.1
			s0.3,0.2,0.4,0.4c0.5,0.3,1,0.5,1.6,0.6c0.9,0.2,1.2-0.2,1.9-0.5c1.7-0.6,2.8,1.6,4,2.5c0.1,0.1,0.1,0.2,0.1,0.3
			c0.3,0.4,0.6,0.7,0.9,1.1c0.3,0.3,0.7,0.7,0.8,1.2c0.1,0.4-0.3,1.1-0.5,1.5c-0.4,1.1-0.6,2.4-0.6,3.6c0,1.1,0.4,1.8,0.7,2.8
			c0.2,0.8,0.1,1.6,0,2.4c-0.1,0.9-0.3,1.7-0.4,2.6c-0.1,0.6,0,1.4-0.3,1.9c-0.3,0.6-0.8,1.1-1.2,1.6c-0.5,0.7-1.1,1.5-1.5,2.2
			c-0.5,0.9-1.3,1.8-1.7,2.7c-0.3,0.6-0.6,1.1-1.2,1.4c-0.5,0.3-1.1,0.4-1.6,0.5c-0.8,0.2-1.3,0.7-2.1,1c-0.5,0.2-0.9,0.1-1.4-0.1
			c-1.4-0.4-2.7-0.6-3.9,0.4c-0.4,0.3-0.7,0.7-1,1.1l0,0c0.6,0.5,1.2,1.1,1.8,1.7l0,0c0.6-0.3,1.2-0.6,1.7-0.9
			c0.5-0.3,0.9-0.5,1.4-0.5c0.5,0.1,1,0.4,1.4,0.7c1.5,0.7,2.2-0.2,3.3-1.1c0.4-0.3,0.5-0.3,0.9-0.4c1-0.2,1.5-0.6,2.2-1.4
			c0.4-0.5,0.8-1,1.1-1.6c0.1,0.3,0.2,0.7,0.3,1c-0.5,0.8-1.2,1.7-2,2.1c-0.7,0.4-1.4,0.4-2,0.7c-0.6,0.4-1.1,1-1.7,1.4
			c-0.5,0.3-1,0.6-1.6,0.4c-1.1-0.2-1.7-1-2.9-0.3c-1,0.5-2,1-3,1.4c0.4,0.5,0.9,0.9,1.4,1.3c0.1,0.1,0.3,0.2,0.4,0.3
			c0.8-0.4,1.8-0.5,2.6-0.5c0.7,0,1.4,0.4,2,0.3c0.8,0,1.3-0.4,1.9-0.9c1.1-0.9,2.5-1.3,3.7-1.9c0.9-0.5,1-1.3,1.3-2.3
			c0-0.1,0.1-0.1,0.1-0.2c0.1,0.3,0.2,0.7,0.3,1c-0.2,0.4-0.3,0.8-0.6,1.1c-0.4,0.4-1.1,0.5-1.6,0.8c-0.7,0.4-1.3,0.9-2,1.3
			c-0.5,0.3-0.8,0.6-1.3,1.1c-0.2,0.2-0.3,0.3-0.6,0.4c-0.4,0.2-1,0.4-1.5,0.4c-0.7,0-1.4-0.3-2.1-0.3c-0.6,0-1.3-0.1-1.9,0
			c0.5,0.4,1,0.9,1.1,1.5c0,0.1-0.2,0.1-0.2,0c0-0.6-0.8-1.1-1.2-1.4l0,0c-0.3,0.1-0.6,0.2-0.8,0.5c-0.3,0.3-0.6,0.5-0.9,0.7
			c0.5,0.5,0.9,1.1,1.4,1.6c0.9-0.3,1.8-0.4,2.7-0.4c0.8,0,1.6,0.4,2.4,0.4c0.9,0,1.6-0.5,2.2-1c1.3-1,2.9-1.5,4.4-2.3
			c0.7-0.4,1-0.9,1.2-1.5c0.1,0.3,0.2,0.6,0.3,0.9c-0.1,0.1-0.1,0.2-0.2,0.3c-0.5,0.5-1.3,0.6-1.8,0.9c-0.8,0.5-1.5,1.1-2.3,1.5
			c-0.6,0.4-1,0.7-1.5,1.2c-0.2,0.3-0.4,0.3-0.7,0.5c-0.5,0.2-1.2,0.5-1.7,0.5c-0.8,0-1.6-0.3-2.4-0.4c-0.7,0-1.3-0.1-2,0
			c0.2,0.3,0.5,0.5,0.7,0.8v0.1c0,0.1,0,0.1,0,0.2c0,0.1-0.2,0.1-0.2,0c0.1-0.3-0.6-0.8-0.8-1l0,0c-0.4,0.1-0.7,0.2-1,0.5
			c0.4,0.5,0.9,1,1.3,1.5c0.1,0.1,0,0.2-0.1,0.1c-0.5-0.5-0.9-1-1.3-1.5c0,0-0.1,0-0.1,0.1c-0.6,0.6-1,0.9-1.8,1.2
			c-0.8,0.4-1.6,0.5-2.5,0.7c-0.6,0.1-1.1,0.1-1.7-0.1c-0.8-0.2-1.6-0.4-2.4-0.8c-0.7-0.4-1.3-1.1-2-1.6c-0.5-0.4-0.9-0.8-1.3-1.2
			c-0.7-0.7-1.2-1.7-2-2.3c0,0,0,0,0-0.1c-0.3-0.3-0.6-0.5-0.7-0.8c-0.3-0.5-0.4-1.6-0.4-2.2c0-1.3,0.3-2.5,0.2-3.9
			c0-0.2,0-0.5,0-0.7c-0.6-0.9-1.2-1.8-1.8-2.7c0,1.3,0,2.6,0,3.9v0.1c0,0.7,1,1.3,1.4,2.1c0.1,0.1-0.1,0.2-0.2,0.1
			c-0.4-0.7-0.8-1.3-1.3-1.9c0,1,0.3,2,0.2,3c0,0.2,0,0.4-0.1,0.7c0.4,0.6,0.7,1.2,1.1,1.7c0.4,0.6,1.1,1.3,1.1,2.1
			c0,0.1-0.2,0.1-0.2,0c0-0.8-0.7-1.5-1.2-2.1c-0.3-0.5-0.6-0.9-0.9-1.4c-0.1,0.9-0.2,1.8-0.1,2.8c0,0.1,0.1,0.3,0.1,0.4
			c0.2,0.4,0.4,0.8,0.5,1.2c0.9,1.4,2.4,2.5,3.4,3.5c0.5,0.5,1,1,1.6,1.5c0.5,0.4,1.2,0.6,1.7,1.1c0,0,0,0,0,0.1
			c0.5,0.2,1,0.3,1.6,0.5c2.2,0.5,4.9-0.2,6.5-1.9c1.2-1.3,3-1.5,4.6-1.4c0.9,0,1.8,0.5,2.7,0.5c1,0,1.8-0.6,2.5-1.2
			c1.5-1.2,3.3-1.7,5-2.6c0.5-0.3,0.8-0.6,1-1c0.1,0.2,0.2,0.5,0.3,0.7c-0.6,0.5-1.4,0.6-2,1c-0.9,0.5-1.7,1.2-2.6,1.7
			c-0.7,0.4-1.1,0.8-1.7,1.4c-0.3,0.3-0.4,0.4-0.8,0.5c-0.6,0.3-1.3,0.5-2,0.5c-0.9,0-1.8-0.4-2.7-0.4c-1.4-0.1-2.8-0.3-3.9,0.8
			c-0.7,0.6-1.2,1-2,1.4C19,64.1,18,64.2,17,64.4c-0.7,0.1-1.3,0.1-2-0.1c-0.9-0.3-1.8-0.4-2.7-0.9c-0.8-0.5-1.5-1.2-2.2-1.9
			c-0.5-0.5-1-0.9-1.5-1.4C8,59.5,7.5,58.7,6.9,58v0.1c0,0.1-0.1,0.1-0.1,0s0-0.2-0.1-0.3s-0.3-0.2-0.4-0.4c0,0,0,0,0-0.1
			c-0.3-0.3-0.6-0.6-0.8-1c-0.3-0.5-0.4-1.4-0.4-2.1c-0.3-0.5-0.6-0.9-0.8-1.4c-0.3-0.5-0.6-1-0.9-1.5c-0.2,1.3-0.5,2.7-0.3,4
			c0.2,1.6,1.1,3,2.1,4.1c-0.6-1.4-1.8-2.7-1.9-4.3c0-0.1,0.1-0.1,0.1,0c0.3,1.5,1.3,2.6,1.9,4c0.1,0.1,0.1,0.4,0.2,0.6
			c0.1,0.1,0.1,0.1,0.2,0.2c0.8,0.7,1.8,1.3,2.6,1.9c0.7,0.6,1.4,1.2,2.3,1.6c1.5,0.7,3,2,4.6,2.3s3.7,0.7,5.1-0.1
			c0.3-0.2,0.5,0,0.6,0.3c0.3-0.1,0.5-0.2,0.8-0.3c0.4-0.3,0.9-0.4,1.3-0.7c1.2-0.8,2.3-1.1,3.7-0.9c1.5,0.2,2.9,0.5,4.3-0.4
			c0.6-0.4,1.2-0.8,1.8-1.1c0.8-0.4,1.5,0.2,2.2-0.4c1-0.8,1.5-0.8,2.6-1.4c1.3-0.8,3.9,0,4.7-1.3c0.6-1.1,2.4-3.8,3.4-4.4
			c1.4-0.9,1.3-3.4,2-5.2c1.2-3,0.9-6.8,1.5-10.1c0.3-1.7,0.6-3.4,0.7-5.1c0.1-0.8,0.2-1.7,0.2-2.5c0.1-0.9,0.3-1.7,0.4-2.5
			C51.7,27.7,51.5,26.4,51,25.1z"/>
		<path id="XMLID_1310_" class="st0" d="M23.2,28.3c0.3-0.5,0.4-1.4,0.8-1.8c0.4-0.4,0.7-0.3,1.2-0.1c0.9,0.3,1.8,0.2,2.7,0.3
			c1.4,0.2,2.2,0.9,2.1,2.4c-0.1,1-0.1,2.1-0.3,3c-0.2,0.8-0.6,1.5-1,2.2c-0.5,0.8-1,1.4-1.6,2.1c-0.6,0.6-1.2,1.9-1.9,2.3
			c-0.8,0.4-1.2-0.3-1.2-1.1c-0.4-1.5,0.8-3.1,0.1-4.6c-0.4-0.8-0.8-0.5-1.3-1c-0.3-0.4-0.5-1.1-0.5-1.6
			C22.4,29.5,22.9,29,23.2,28.3z M23.1,31.4c0.3,0.5,0.7,0.4,1,0.6c0.5,0.4,0.8,1.1,0.8,1.8c0,0.5-0.1,1-0.3,1.5
			c-0.2,0.7-0.2,1.3-0.2,1.9c0.1,0,0.1,0.2,0,0.2l0,0c0.3,0.1,0.6,0.1,0.9,0.2c0.1-0.1,0.2-0.3,0.3-0.4c0.1-0.1,0.3-0.4,0.4-0.5
			c0.3-0.4,0.6-0.7,1-1.1c0.9-0.8,2-2.2,2.3-3.6c0.3-1.2,0.5-3.6-0.6-4.3c-0.8-0.6-2.1-0.3-3-0.3c-0.5,0-1-0.3-1.4,0.3
			c-0.2,0.3-0.3,0.7-0.5,1.1C23.4,29.5,22.5,30.3,23.1,31.4z"/>
		<path id="XMLID_1303_" class="st0" d="M27,28.7c1.4,0.8,1.2,2.7,0.9,4.1c-0.1,0.6-0.2,1-0.7,1.2c-0.4,0.2-0.6,0.2-0.7,0.1
			c0,0,0,0.1-0.1,0.1c-0.4,0.1-0.6-0.3-0.6-0.7c-0.1-0.5-0.1-1-0.3-1.5s-0.6-0.9-0.7-1.4C24.4,29.2,26,28.1,27,28.7z M25.7,31.4
			c0.2,0.4,0.2,1.5,0.4,2.1c0.8,0.1,1.2-0.4,1.4-1.3c0.3-1.1,0.4-2.4-0.7-3c-0.6-0.3-1.5,0-1.6,0.8C25.1,30.6,25.5,31,25.7,31.4z"/>
		<path id="XMLID_1302_" class="st0" d="M8.9,60.5C8.5,59.8,8,59,7.6,58.4s-0.9-1.1-1.3-1.8c-0.4-0.8-0.7-1.8-1.2-2.6
			c-0.3-0.5-0.6-0.9-0.6-1.5c0-0.1,0.1-0.1,0.1,0c0.1,0.7,0.6,1.3,0.9,1.9c0.4,0.8,0.6,1.6,1,2.4c0.3,0.6,0.8,1,1.2,1.6
			C8.1,59.1,8.5,59.8,8.9,60.5C9.1,60.5,8.9,60.6,8.9,60.5z"/>
	</g>
	<g>
		<g id="XMLID_1594_">
			<path id="XMLID_1610_" class="st0" d="M74.6,16.5v8c0,2.9,1.1,5,4.1,5s4.2-2,4.2-5v-7.7l-2.3-0.3l0.3-3h8.4v2.8l-2,0.3v8.9
				c0,4.2-2.3,7.7-8.5,7.7c-6.1,0-8.5-3.7-8.5-7.7v-8.9l-2.3-0.3l0.3-2.8h8.6v2.8L74.6,16.5z"/>
			<path id="XMLID_1608_" class="st0" d="M90.8,32.6l-0.3-3l1.7-0.1v-8.3l-1.5-0.1l0.1-3h5.1l0.4,1l0,0c0,0,1.3-1.5,4.7-1.5
				c3.6,0,5.3,1.5,5.3,5v7.2l1.7,0.1l-0.1,2.9h-5.6v-9.5c0-1.7-0.8-2.2-2.5-2.2c-1.9,0-3,1-3,1v7.6l1.7,0.1l-0.1,2.9h-7.4V32.6z"/>
			<path id="XMLID_1605_" class="st0" d="M109.6,32.6l-0.3-3l1.7-0.1v-8.3l-1.5-0.1l0.1-3h5.7v11.7l1.7,0.1l-0.1,2.9h-7.2V32.6z
				 M113.1,15.7c-1.7,0-2.5-1-2.5-2.3s0.9-2.3,2.5-2.3s2.5,1,2.5,2.3S114.6,15.7,113.1,15.7z"/>
			<path id="XMLID_1602_" class="st0" d="M118.5,40l-0.1-3.2l1.7-0.1V21.1l-1.5-0.1l0.3-3h5.1l0.3,1l0,0c0,0,1.4-1.5,4.7-1.5
				c4.1,0,6.6,2.8,6.6,7.2c0,4.8-2.5,8.5-6.9,8.5c-2.9,0-4.2-1-4.2-1h-0.1v4.8l1.7,0.1l-0.3,2.9H118.5z M124.2,22.1v6.9
				c0,0,0.9,1.1,2.8,1.1c2.7,0,3.8-1.9,3.8-5.3c0-3.3-1.1-4.2-3.7-4.2C125.2,20.5,124.3,21.8,124.2,22.1z"/>
			<path id="XMLID_1600_" class="st0" d="M136.9,32.6l-0.1-3l1.7-0.1V13.7l-1.5-0.1l0.3-3h5.7v19.1l1.7,0.1l-0.4,2.9H136.9z"/>
			<path id="XMLID_1597_" class="st0" d="M146,32.6l-0.3-3l1.7-0.1v-8.3l-1.5-0.1l0.1-3h5.7v11.7l1.7,0.1l-0.1,2.9H146V32.6z
				 M149.6,15.7c-1.7,0-2.5-1-2.5-2.3s0.9-2.3,2.5-2.3s2.5,1,2.5,2.3S151.1,15.7,149.6,15.7z"/>
			<path id="XMLID_1595_" class="st0" d="M160.6,21.1v6.2c0,1.7,0.5,2.4,1.7,2.4c0.9,0,2-0.1,2-0.1v2.8c0,0-1,0.6-3.3,0.6
				c-3,0-4.7-1.1-4.7-4.4v-7.2h-1.7v-3l1.7-0.1l0.6-4.4h3.7v4.4h3.9v3.3h-3.9V21.1z"/>
		</g>
		<g>
			<g>
				<path class="st0" d="M67.9,49.5c0-1.7,1.3-2.8,2.9-2.8s2.9,1.3,2.9,2.8c0,1.7-1.3,2.8-2.9,2.8C69.2,52.4,67.9,51.1,67.9,49.5z
					 M73,49.5c0-1.3-0.9-2.2-2.2-2.2s-2.2,0.9-2.2,2.2c0,1.3,0.9,2.2,2.2,2.2S73,50.8,73,49.5z"/>
				<path class="st0" d="M77.8,52.3v1.5H77v-1.5c-1.5-0.1-2.5-0.9-2.5-2.2s0.9-2,2.5-2.2v-1.7h0.8V48c1.5,0.1,2.5,0.9,2.5,2.2
					C80.2,51.5,79.3,52.3,77.8,52.3z M77,51.7v-2.9c-1.1,0.1-1.8,0.6-1.8,1.4C75.3,51,75.9,51.7,77,51.7z M79.5,50.1
					c0-0.9-0.6-1.4-1.8-1.4v2.9C79,51.7,79.5,51.1,79.5,50.1z"/>
				<path class="st0" d="M81.4,48.1h0.8v3l2.5-3h0.6v4.2h-0.8v-3l-2.5,3h-0.6V48.1z"/>
				<path class="st0" d="M91.3,51.7v1.7h-0.8v-1h-3.8v-4.2h0.8v3.6h2.3v-3.6h0.8v3.6H91.3z"/>
				<path class="st0" d="M92.3,48.1H93v3l2.5-3h0.6v4.2h-0.8v-3l-2.5,3h-0.8v-4.2H92.3z"/>
				<path class="st0" d="M101.2,49.7v2.5h-0.8v-0.5c-0.3,0.4-0.8,0.6-1.4,0.6c-1,0-1.5-0.5-1.5-1.3c0-0.6,0.4-1.3,1.7-1.3h1.3v-0.1
					c0-0.6-0.4-1-1.1-1c-0.5,0-1,0.1-1.4,0.5l-0.3-0.6c0.4-0.4,1-0.5,1.8-0.5C100.4,48.1,101.2,48.6,101.2,49.7z M100.4,51v-0.6
					h-1.3c-0.8,0-1,0.3-1,0.6s0.4,0.6,0.9,0.6C99.8,51.8,100.2,51.5,100.4,51z"/>
				<path class="st0" d="M106.1,48.1v4.2h-0.8v-3.6h-1.8v0.9c-0.1,1.5-0.3,2.7-1.3,2.7c-0.1,0-0.3,0-0.5-0.1v-0.6c0.1,0,0.1,0,0.3,0
					c0.6,0,0.8-1,0.8-2L103,48h3.2V48.1z"/>
				<path class="st0" d="M111.2,50.9c0,0.9-0.6,1.4-1.8,1.4h-1.8v-4.2h0.8v1.4h1.1C110.6,49.5,111.2,50,111.2,50.9z M110.5,50.9
					c0-0.5-0.4-0.8-1-0.8h-1v1.7h1C110.1,51.8,110.5,51.4,110.5,50.9z"/>
				<path class="st0" d="M112.1,48.1h0.8v1.8h2.4v-1.8h0.8v4.2h-0.8v-1.8h-2.4v1.8h-0.8V48.1z"/>
				<path class="st0" d="M121.1,50.9c0,0.9-0.6,1.4-1.8,1.4h-1.8v-4.2h0.8v1.4h1.1C120.5,49.5,121.1,50,121.1,50.9z M120.4,50.9
					c0-0.5-0.4-0.8-1-0.8h-1v1.7h1C120,51.8,120.4,51.4,120.4,50.9z M121.8,48.1h0.8v4.2h-0.8V48.1z"/>
				<path class="st0" d="M124,48.1h0.8v3l2.5-3h0.6v4.2h-0.8v-3l-2.5,3h-0.8v-4.2H124z M124.7,46.4h0.5c0,0.4,0.3,0.6,0.8,0.6
					c0.4,0,0.8-0.3,0.8-0.6h0.5c0,0.8-0.5,1.1-1.3,1.1S124.7,47.2,124.7,46.4z"/>
			</g>
			<g>
				<path class="st0" d="M72.9,61.2v1.7h-0.8v-1h-3.4v1h-0.8v-1.7h0.3c0.6,0,0.8-1,0.8-2.2v-1.4h3.3v3.6
					C72.2,61.2,72.9,61.2,72.9,61.2z M69,61.2h2.4v-2.9h-1.9V59C69.6,59.9,69.4,60.8,69,61.2z"/>
				<path class="st0" d="M73.9,57.6h0.8v3l2.5-3h0.6v4.2H77v-3l-2.5,3h-0.6V57.6z"/>
				<path class="st0" d="M83,57.6v4.2h-0.8v-3.6h-1.8v0.9c-0.1,1.5-0.3,2.7-1.3,2.7c-0.1,0-0.3,0-0.5-0.1v-0.6c0.1,0,0.1,0,0.3,0
					c0.6,0,0.8-1,0.8-2l0.1-1.5H83V57.6z"/>
				<path class="st0" d="M88.2,60h-3.4c0.1,0.8,0.6,1.3,1.5,1.3c0.5,0,0.9-0.1,1.3-0.5l0.4,0.5c-0.4,0.5-1,0.6-1.7,0.6
					c-1.4,0-2.3-0.9-2.3-2.2s0.9-2.2,2.2-2.2s2,0.9,2,2.2C88.2,59.8,88.2,59.9,88.2,60z M84.8,59.4h2.7c-0.1-0.8-0.6-1.1-1.4-1.1
					C85.4,58.3,84.9,58.8,84.8,59.4z"/>
				<path class="st0" d="M93.8,59.8c0,1.3-0.9,2.2-2.2,2.2c-0.6,0-1.1-0.3-1.5-0.6v2.2h-0.8v-5.7h0.8v0.6c0.4-0.5,0.9-0.8,1.5-0.8
					C92.9,57.6,93.8,58.4,93.8,59.8z M93,59.8c0-0.9-0.6-1.5-1.4-1.5c-0.8,0-1.4,0.6-1.4,1.5c0,0.9,0.6,1.5,1.4,1.5
					C92.4,61.2,93,60.7,93,59.8z"/>
				<path class="st0" d="M99,59.7l-0.8,0.8v1.4H97v-5.6h1.3v2.5l2.4-2.5h1.4l-2.3,2.4l2.4,3h-1.5L99,59.7z"/>
				<path class="st0" d="M106.4,59.4v2.4h-1.1v-0.5c-0.3,0.4-0.6,0.6-1.3,0.6c-1,0-1.7-0.5-1.7-1.3c0-0.8,0.5-1.3,1.8-1.3h1
					c0-0.5-0.4-0.9-1-0.9c-0.5,0-0.9,0.1-1.3,0.4l-0.4-0.9c0.5-0.4,1.1-0.5,1.8-0.5C105.6,57.5,106.4,58.1,106.4,59.4z M105.1,60.4
					V60h-0.8c-0.6,0-0.8,0.3-0.8,0.5c0,0.3,0.3,0.5,0.8,0.5C104.7,61.1,105,60.9,105.1,60.4z"/>
				<path class="st0" d="M107.1,61.4l0.4-0.9c0.4,0.3,1,0.4,1.5,0.4s0.8-0.1,0.8-0.4c0-0.6-2.5,0-2.5-1.7c0-0.8,0.8-1.4,2-1.4
					c0.6,0,1.3,0.1,1.7,0.4l-0.4,0.9c-0.4-0.3-0.9-0.3-1.3-0.3c-0.5,0-0.8,0.1-0.8,0.4c0,0.8,2.5,0,2.5,1.7c0,0.8-0.8,1.4-2,1.4
					C108.3,61.9,107.5,61.7,107.1,61.4z"/>
				<path class="st0" d="M114.5,61.6c-0.3,0.1-0.6,0.3-1,0.3c-1,0-1.7-0.5-1.7-1.5v-1.7h-0.6v-1h0.6v-1h1.3v1h1v1h-1v1.8
					c0,0.4,0.3,0.5,0.5,0.5c0.1,0,0.4,0,0.5-0.1L114.5,61.6z"/>
				<path class="st0" d="M119,59.4v2.4h-1.1v-0.5c-0.3,0.4-0.6,0.6-1.3,0.6c-1,0-1.7-0.5-1.7-1.3c0-0.8,0.5-1.3,1.8-1.3h1
					c0-0.5-0.4-0.9-1-0.9c-0.5,0-0.9,0.1-1.3,0.4L115,58c0.5-0.4,1.1-0.5,1.8-0.5C118.2,57.5,119,58.1,119,59.4z M117.7,60.4V60
					h-0.9c-0.6,0-0.8,0.3-0.8,0.5c0,0.3,0.3,0.5,0.8,0.5C117.3,61.1,117.6,60.9,117.7,60.4z"/>
				<path class="st0" d="M127.3,59.4v2.4h-1.3v-2.3c0-0.6-0.3-1-0.8-1c-0.5,0-0.9,0.4-0.9,1.1v2.2h-1.3v-2.3c0-0.6-0.3-1-0.8-1
					c-0.5,0-0.9,0.4-0.9,1.1v2.2h-1.3v-4.3h1.1V58c0.4-0.4,0.8-0.5,1.4-0.5c0.6,0,1.1,0.3,1.4,0.6c0.4-0.4,0.9-0.6,1.5-0.6
					C126.6,57.5,127.3,58.1,127.3,59.4z"/>
				<path class="st0" d="M128.2,59.7c0-1.3,1-2.2,2.4-2.2c1.4,0,2.3,0.9,2.3,2.2s-1,2.2-2.3,2.2C129.1,61.9,128.2,60.9,128.2,59.7z
					 M131.7,59.7c0-0.8-0.5-1.1-1.1-1.1c-0.6,0-1.1,0.4-1.1,1.1s0.5,1.1,1.1,1.1C131.2,60.9,131.7,60.4,131.7,59.7z"/>
				<path class="st0" d="M138,59.4v2.4h-1.3v-2.3c0-0.6-0.3-1-0.9-1s-1,0.4-1,1.1v2.2h-1.3v-4.3h1.3V58c0.4-0.4,0.9-0.5,1.4-0.5
					C137.2,57.5,138,58.1,138,59.4z"/>
				<path class="st0" d="M143.5,57.5v4.3h-1.1v-0.5c-0.4,0.4-0.8,0.6-1.3,0.6c-1,0-1.8-0.6-1.8-1.9v-2.4h1.3v2.3c0,0.8,0.4,1,0.9,1
					s1-0.4,1-1.1v-2.2h1V57.5z"/>
			</g>
		</g>
	</g>
</g>
</svg>
