<?xml version="1.0" encoding="UTF-8"?>
<svg xmlns="http://www.w3.org/2000/svg" xmlns:xlink="http://www.w3.org/1999/xlink" width="460pt" height="70pt" viewBox="0 0 460 70" version="1.1">
<g id="surface1">
<path style=" stroke:none;fill-rule:evenodd;fill:rgb(14.099121%,53.29895%,66.699219%);fill-opacity:1;" d="M 46.652344 27.761719 L 80.390625 67.96875 L 49.425781 67.96875 L 28.855469 43.707031 L 27.238281 45.324219 L 27.238281 67.96875 L 0.894531 67.96875 L 0.894531 9.042969 L 27.238281 9.042969 L 27.238281 34.691406 L 55.894531 9.042969 L 67.914063 8.8125 L 46.652344 27.761719 "/>
<path style=" stroke:none;fill-rule:evenodd;fill:rgb(14.099121%,53.29895%,66.699219%);fill-opacity:1;" d="M 299.238281 17.128906 L 299.238281 67.96875 L 272.894531 67.96875 L 272.894531 17.128906 L 250.480469 17.128906 L 250.480469 8.8125 L 321.652344 8.8125 L 321.652344 17.128906 L 299.238281 17.128906 "/>
<path style=" stroke:none;fill-rule:evenodd;fill:rgb(14.099121%,53.29895%,66.699219%);fill-opacity:1;" d="M 163.816406 8.8125 L 165.898438 8.8125 L 189.929688 9.042969 L 204.953125 42.78125 L 219.277344 9.042969 L 246.089844 9.042969 L 246.089844 67.96875 L 219.972656 67.96875 L 219.972656 30.300781 L 204.03125 67.96875 L 191.777344 67.96875 L 173.523438 26.605469 L 173.523438 67.96875 L 163.816406 67.96875 L 163.816406 8.8125 "/>
<path style=" stroke:none;fill-rule:evenodd;fill:rgb(14.099121%,53.29895%,66.699219%);fill-opacity:1;" d="M 398.378906 9.042969 L 424.726563 9.042969 L 424.726563 59.652344 L 459.851563 59.652344 L 459.851563 67.96875 L 398.378906 67.96875 L 398.378906 9.042969 "/>
<path style=" stroke:none;fill-rule:evenodd;fill:rgb(14.099121%,53.29895%,66.699219%);fill-opacity:1;" d="M 111.128906 8.8125 L 111.128906 54.796875 L 111.359375 55.492188 L 111.820313 56.417969 L 112.28125 57.109375 L 112.746094 58.035156 L 113.4375 58.726563 L 114.363281 59.191406 L 115.285156 59.882813 L 116.441406 60.34375 L 117.828125 60.804688 L 119.21875 61.269531 L 120.832031 61.5 L 122.683594 61.730469 L 124.761719 61.960938 L 129.152344 61.960938 L 131.234375 61.730469 L 132.851563 61.269531 L 134.46875 61.039063 L 135.855469 60.34375 L 137.011719 59.652344 L 137.933594 58.960938 L 138.628906 58.265625 L 139.320313 57.339844 L 140.015625 56.183594 L 140.246094 55.261719 L 140.707031 54.105469 L 140.9375 52.71875 L 140.9375 51.566406 L 141.171875 48.789063 L 141.171875 8.8125 L 151.339844 8.8125 L 151.339844 53.875 L 150.644531 55.953125 L 149.953125 57.804688 L 149.257813 58.726563 L 148.796875 59.652344 L 148.105469 60.34375 L 147.410156 61.269531 L 143.714844 64.042969 L 141.632813 65.199219 L 139.320313 66.125 L 137.933594 66.582031 L 136.78125 67.046875 L 134.003906 67.742188 L 131.234375 68.433594 L 128.226563 68.894531 L 125.222656 69.128906 L 121.988281 69.359375 L 115.75 69.359375 L 112.515625 69.128906 L 109.511719 68.894531 L 106.503906 68.433594 L 103.5 67.96875 L 100.960938 67.046875 L 99.574219 66.8125 L 98.417969 66.355469 L 95.875 65.429688 L 93.792969 64.273438 L 90.097656 61.5 L 88.710938 60.113281 L 88.019531 59.191406 L 87.554688 58.496094 L 87.09375 57.574219 L 86.632813 56.648438 L 86.402344 55.722656 L 86.167969 54.570313 L 85.9375 52.488281 L 85.9375 8.8125 L 111.128906 8.8125 "/>
<path style=" stroke:none;fill-rule:evenodd;fill:rgb(14.099121%,53.29895%,66.699219%);fill-opacity:1;" d="M 390.058594 59.652344 L 390.058594 67.96875 L 328.585938 67.96875 L 328.585938 9.042969 L 387.054688 9.042969 L 387.054688 17.359375 L 354.933594 17.359375 L 354.933594 31.457031 L 380.355469 31.457031 L 380.355469 39.777344 L 354.933594 39.777344 L 354.933594 59.652344 L 390.058594 59.652344 "/>
<path style=" stroke:none;fill-rule:evenodd;fill:rgb(13.699341%,12.199402%,12.5%);fill-opacity:1;" d="M 441.59375 5.113281 L 440.898438 5.808594 L 440.671875 6.269531 L 440.4375 6.5 L 439.511719 8.117188 L 439.285156 9.042969 L 439.054688 9.96875 L 438.820313 10.660156 L 438.820313 12.738281 L 439.054688 13.664063 L 439.511719 15.28125 L 439.976563 16.207031 L 440.4375 16.898438 L 441.59375 18.285156 L 442.289063 18.980469 L 442.980469 19.441406 L 444.597656 20.367188 L 445.289063 20.59375 L 446.21875 20.828125 L 448.066406 21.058594 L 449.914063 20.828125 L 451.761719 20.367188 L 453.378906 19.441406 L 454.074219 18.980469 L 454.765625 18.285156 L 455.226563 17.59375 L 455.921875 16.898438 L 456.617188 15.28125 L 457.078125 14.359375 L 457.308594 13.664063 L 457.308594 9.96875 L 456.617188 8.117188 L 456.382813 7.421875 L 455.921875 6.5 L 454.765625 5.113281 L 454.074219 4.421875 L 453.148438 3.957031 L 451.761719 3.03125 L 450.839844 2.800781 L 449.914063 2.570313 L 448.066406 2.339844 L 446.21875 2.570313 L 444.597656 3.03125 L 442.980469 3.957031 L 442.289063 4.421875 Z M 455.691406 19.441406 L 454.996094 20.136719 L 454.074219 20.828125 L 453.148438 21.289063 L 452.226563 21.753906 L 451.296875 21.984375 L 450.375 22.214844 L 448.066406 22.445313 L 445.984375 22.214844 L 445.0625 21.984375 L 443.90625 21.753906 L 442.980469 21.289063 L 442.058594 20.828125 L 441.363281 20.136719 L 440.4375 19.441406 L 439.746094 18.515625 L 439.054688 17.59375 L 438.589844 16.898438 L 438.128906 15.972656 L 437.898438 14.820313 L 437.664063 13.890625 L 437.433594 12.738281 L 437.433594 10.660156 L 437.664063 9.503906 L 437.898438 8.582031 L 438.128906 7.65625 L 438.589844 6.730469 L 439.054688 5.808594 L 439.746094 4.882813 L 440.4375 4.1875 L 441.363281 3.265625 L 442.289063 2.800781 L 442.980469 2.109375 L 443.90625 1.644531 L 445.0625 1.417969 L 445.984375 1.183594 L 448.066406 0.953125 L 450.375 1.183594 L 451.296875 1.417969 L 452.226563 1.644531 L 453.148438 2.109375 L 454.074219 2.800781 L 454.996094 3.265625 L 455.691406 4.1875 L 456.382813 4.882813 L 457.078125 5.808594 L 457.769531 6.730469 L 458.234375 7.65625 L 458.464844 8.582031 L 458.695313 9.503906 L 458.925781 10.660156 L 458.925781 12.738281 L 458.695313 13.890625 L 458.464844 14.820313 L 458.234375 15.742188 L 457.769531 16.898438 L 457.078125 17.59375 L 456.382813 18.515625 Z M 450.144531 7.65625 L 449.683594 7.421875 L 449.222656 7.195313 L 445.984375 7.195313 L 445.984375 11.585938 L 447.835938 11.585938 L 448.988281 11.351563 L 449.683594 11.121094 L 450.375 10.890625 L 450.605469 10.429688 L 450.839844 9.96875 L 450.839844 8.347656 L 450.605469 7.886719 Z M 447.835938 5.808594 L 449.914063 5.808594 L 450.605469 6.039063 L 451.070313 6.269531 L 451.992188 6.730469 L 452.457031 7.421875 L 452.6875 7.65625 L 452.917969 8.117188 L 452.917969 9.96875 L 452.6875 10.660156 L 451.761719 11.585938 L 451.070313 11.816406 L 450.144531 12.046875 L 450.839844 12.277344 L 451.296875 12.507813 L 451.761719 12.738281 L 452.226563 13.203125 L 452.6875 14.125 L 452.6875 15.972656 L 452.917969 16.898438 L 452.917969 17.59375 L 451.070313 17.59375 L 451.070313 17.359375 L 450.839844 16.898438 L 450.839844 15.050781 L 450.605469 14.359375 L 450.375 13.664063 L 449.914063 13.203125 L 448.988281 12.972656 L 445.984375 12.972656 L 445.984375 17.59375 L 443.675781 17.59375 L 443.675781 5.808594 L 447.835938 5.808594 "/>
</g>
</svg>
