<svg class="navbarForDesctop" id="svg_d6b48616-1045-4f9e-ac91-7b976a2a76271" xmlns="http://www.w3.org/2000/svg" viewBox="0 0 588.12082 196.12623">
<path d="M229.7679,207.59426a0.74223,0.74223,0,0,1,.54932.23535,0.84488,0.84488,0,0,1,.229.6123v11.02344H241.3055a0.74013,0.74013,0,0,1,.54932.23535,0.8433,0.8433,0,0,1,.229.6123,0.78423,0.78423,0,0,1-.229.56543,0.74013,0.74013,0,0,1-.54932.23535H229.7679a0.79107,0.79107,0,0,1-.59521-0.23535,0.78225,0.78225,0,0,1-.229-0.56543V208.44192a0.84286,0.84286,0,0,1,.229-0.6123A0.79472,0.79472,0,0,1,229.7679,207.59426Z" transform="translate(-12.42804 -24.98756)" style="fill:#d1233f">
</path>
<path d="M277.51986,219.70071a0.84362,0.84362,0,0,1,.22949.6123,0.78468,0.78468,0,0,1-.22949.56543,0.7937,0.7937,0,0,1-.59473.23535H265.387a0.73813,0.73813,0,0,1-.5498-0.23535,0.78378,0.78378,0,0,1-.22852-0.56543,0.843,0.843,0,0,1,.22852-0.6123,0.73813,0.73813,0,0,1,.5498-0.23535h4.99023V209.2427H265.387a0.73813,0.73813,0,0,1-.5498-0.23535,0.78058,0.78058,0,0,1-.22852-0.56543,0.84455,0.84455,0,0,1,.22852-0.6123,0.74174,0.74174,0,0,1,.5498-0.23535h11.53809a0.79738,0.79738,0,0,1,.59473.23535,0.84521,0.84521,0,0,1,.22949.6123,0.78147,0.78147,0,0,1-.22949.56543,0.7937,0.7937,0,0,1-.59473.23535h-4.94531v10.22266h4.94531A0.7937,0.7937,0,0,1,277.51986,219.70071Z" transform="translate(-12.42804 -24.98756)" style="fill:#d1233f">
</path>
<path d="M312.54427,207.59426a0.74272,0.74272,0,0,1,.54883.23535,0.78539,0.78539,0,0,1,.22852.56543,0.83983,0.83983,0,0,1-.22852.6123,0.73908,0.73908,0,0,1-.54883.23535H301.78451v4.28711h10.75977a0.74272,0.74272,0,0,1,.54883.23535,0.78378,0.78378,0,0,1,.22852.56543,0.8414,0.8414,0,0,1-.22852.6123,0.73908,0.73908,0,0,1-.54883.23535H301.78451v5.08789a0.8414,0.8414,0,0,1-.22852.6123,0.73966,0.73966,0,0,1-.5498.23535,0.78922,0.78922,0,0,1-.59473-0.23535,0.83806,0.83806,0,0,1-.22949-0.6123V208.395a0.78233,0.78233,0,0,1,.22949-0.56543,0.79285,0.79285,0,0,1,.59473-0.23535h11.53809Z" transform="translate(-12.42804 -24.98756)" style="fill:#d1233f">
</path>
<path d="M348.16243,207.59426a0.74117,0.74117,0,0,1,.54883.23535,0.78233,0.78233,0,0,1,.22949.56543,0.8365,0.8365,0,0,1-.22949.6123,0.73755,0.73755,0,0,1-.54883.23535H337.40365v4.28711h10.75879a0.74117,0.74117,0,0,1,.54883.23535,0.78073,0.78073,0,0,1,.22949.56543,0.83806,0.83806,0,0,1-.22949.6123,0.73755,0.73755,0,0,1-.54883.23535H337.40365v4.28711h10.75879a0.73755,0.73755,0,0,1,.54883.23535,0.78073,0.78073,0,0,1,.22949.56543,0.83806,0.83806,0,0,1-.22949.6123,0.73755,0.73755,0,0,1-.54883.23535H336.62533a0.79143,0.79143,0,0,1-.5957-0.23535,0.83741,0.83741,0,0,1-.22852-0.6123V208.395a0.78143,0.78143,0,0,1,.22852-0.56543,0.79507,0.79507,0,0,1,.5957-0.23535h11.53711Z" transform="translate(-12.42804 -24.98756)" style="fill:#d1233f">
</path>
<path d="M419.40072,207.59426a0.74117,0.74117,0,0,1,.54883.23535,0.78233,0.78233,0,0,1,.22949.56543,0.8365,0.8365,0,0,1-.22949.6123,0.73755,0.73755,0,0,1-.54883.23535H408.64193v4.28711h10.75879a0.74117,0.74117,0,0,1,.54883.23535,0.78073,0.78073,0,0,1,.22949.56543,0.83806,0.83806,0,0,1-.22949.6123,0.73755,0.73755,0,0,1-.54883.23535H408.64193v4.28711h10.75879a0.73755,0.73755,0,0,1,.54883.23535,0.78073,0.78073,0,0,1,.22949.56543,0.83806,0.83806,0,0,1-.22949.6123,0.73755,0.73755,0,0,1-.54883.23535H407.86361a0.79143,0.79143,0,0,1-.5957-0.23535,0.83741,0.83741,0,0,1-.22852-0.6123V208.395a0.78143,0.78143,0,0,1,.22852-0.56543,0.79507,0.79507,0,0,1,.5957-0.23535h11.53711Z" transform="translate(-12.42804 -24.98756)" style="fill:#d1233f">
</path>
<path d="M455.01986,207.59426a0.65374,0.65374,0,0,1,.54883.23535,0.87025,0.87025,0,0,1,0,1.17773l-5.21875,5.32324,5.21875,5.37012a0.87025,0.87025,0,0,1,0,1.17773,0.73755,0.73755,0,0,1-.54883.23535,1.02778,1.02778,0,0,1-.5957-0.23535l-5.17285-5.37012-5.21973,5.37012a0.73908,0.73908,0,0,1-.54883.23535,1.0254,1.0254,0,0,1-.5957-0.23535,0.873,0.873,0,0,1,0-1.17773l5.21973-5.37012-5.21973-5.32324a0.873,0.873,0,0,1,0-1.17773,0.79507,0.79507,0,0,1,.5957-0.23535,0.655,0.655,0,0,1,.54883.23535l5.21973,5.32324,5.17285-5.32324A0.79507,0.79507,0,0,1,455.01986,207.59426Z" transform="translate(-12.42804 -24.98756)" style="fill:#d1233f">
</path>
<path d="M490.34115,208.70168a3.68411,3.68411,0,0,1,1.07617,2.66113,3.7415,3.7415,0,0,1-1.07617,2.709,3.47673,3.47673,0,0,1-2.58691,1.10645h-7.874v5.08789a0.842,0.842,0,0,1-.22949.6123,0.73908,0.73908,0,0,1-.54883.23535,0.79143,0.79143,0,0,1-.5957-0.23535,0.83741,0.83741,0,0,1-.22852-0.6123V208.395a0.78143,0.78143,0,0,1,.22852-0.56543,0.79507,0.79507,0,0,1,.5957-0.23535h8.65234A3.47767,3.47767,0,0,1,490.34115,208.70168Zm-1.12109,4.19238a2.16644,2.16644,0,0,0,.59473-1.53125,2.0868,2.0868,0,0,0-.59473-1.50781,1.969,1.969,0,0,0-1.46582-.6123h-7.874v4.28711h7.874A1.93039,1.93039,0,0,0,489.22005,212.89407Z" transform="translate(-12.42804 -24.98756)" style="fill:#d1233f">
</path>
<path d="M526.25814,207.59426a0.74117,0.74117,0,0,1,.54883.23535,0.78233,0.78233,0,0,1,.22949.56543,0.8365,0.8365,0,0,1-.22949.6123,0.73755,0.73755,0,0,1-.54883.23535H515.49935v4.28711h10.75879a0.74117,0.74117,0,0,1,.54883.23535,0.78073,0.78073,0,0,1,.22949.56543,0.83806,0.83806,0,0,1-.22949.6123,0.73755,0.73755,0,0,1-.54883.23535H515.49935v4.28711h10.75879a0.73755,0.73755,0,0,1,.54883.23535,0.78073,0.78073,0,0,1,.22949.56543,0.83806,0.83806,0,0,1-.22949.6123,0.73755,0.73755,0,0,1-.54883.23535H514.721a0.79143,0.79143,0,0,1-.5957-0.23535,0.83741,0.83741,0,0,1-.22852-0.6123V208.395a0.78143,0.78143,0,0,1,.22852-0.56543,0.79507,0.79507,0,0,1,.5957-0.23535h11.53711Z" transform="translate(-12.42804 -24.98756)" style="fill:#d1233f">
</path>
<path d="M562.63216,220.03078a0.66864,0.66864,0,0,1-.06836.6123,0.733,0.733,0,0,1-.68652.4707,0.79434,0.79434,0,0,1-.36621-0.09375l-10.39258-5.32324v4.56934a0.842,0.842,0,0,1-.22949.6123,0.73908,0.73908,0,0,1-.54883.23535,0.79143,0.79143,0,0,1-.5957-0.23535,0.83741,0.83741,0,0,1-.22852-0.6123V208.395a0.78143,0.78143,0,0,1,.22852-0.56543,0.79507,0.79507,0,0,1,.5957-0.23535h8.65234a3.47767,3.47767,0,0,1,2.58691,1.10742,3.68411,3.68411,0,0,1,1.07617,2.66113,3.7415,3.7415,0,0,1-1.07617,2.709,3.47673,3.47673,0,0,1-2.58691,1.10645h-5.26465l8.46973,4.38086A0.77489,0.77489,0,0,1,562.63216,220.03078Zm-11.51367-6.501h7.874a1.93039,1.93039,0,0,0,1.46582-.63574,2.16644,2.16644,0,0,0,.59473-1.53125,2.0868,2.0868,0,0,0-.59473-1.50781,1.969,1.969,0,0,0-1.46582-.6123h-7.874v4.28711Z" transform="translate(-12.42804 -24.98756)" style="fill:#d1233f">
</path>
<path d="M597.49642,207.59426a0.79436,0.79436,0,0,1,.59473.23535,0.7863,0.7863,0,0,1,.22949.56543,0.84047,0.84047,0,0,1-.22949.6123,0.79071,0.79071,0,0,1-.59473.23535h-4.94434v11.02344a0.842,0.842,0,0,1-.22949.6123,0.7922,0.7922,0,0,1-.59473.23535,0.73813,0.73813,0,0,1-.5498-0.23535,0.83741,0.83741,0,0,1-.22852-0.6123V209.2427h-4.99023a0.73813,0.73813,0,0,1-.5498-0.23535,0.83586,0.83586,0,0,1-.22852-0.6123,0.78143,0.78143,0,0,1,.22852-0.56543,0.74174,0.74174,0,0,1,.5498-0.23535h11.53711Z" transform="translate(-12.42804 -24.98756)" style="fill:#d1233f">
</path>
<path d="M331.87678,146.51893a9.2077,9.2077,0,0,0-6.605-2.73656H246.25026V65.11072a9.63757,9.63757,0,0,0-2.75427-6.972,9.20031,9.20031,0,0,0-6.60726-2.74154,9.40037,9.40037,0,0,0-9.71357,9.71357v88.38467a9.17206,9.17206,0,0,0,2.74708,6.61446,9.603,9.603,0,0,0,6.96649,2.74763h88.383a9.3858,9.3858,0,0,0,9.366-9.36209A9.65767,9.65767,0,0,0,331.87678,146.51893Z" transform="translate(-12.42804 -24.98756)" style="fill:#282425">
</path>
<path d="M457.84817,143.78237h-78.572V74.47447h78.572a9.18841,9.18841,0,0,0,6.61446-2.7515,9.60051,9.60051,0,0,0,2.74652-6.96428,9.38105,9.38105,0,0,0-9.361-9.36153h-88.2878a9.382,9.382,0,0,0-9.36153,9.36153c0,0.062.00166,0.12288,0.00443,0.18266l-0.00433,88.72252a8.66478,8.66478,0,0,0,3.33259,6.952,10.63138,10.63138,0,0,0,.89754.59765,11.78526,11.78526,0,0,0,6.10061,1.64387l87.31849,0a9.19854,9.19854,0,0,0,6.61889-2.75206,9.61627,9.61627,0,0,0,2.74209-6.96206A9.37724,9.37724,0,0,0,457.84817,143.78237Z" transform="translate(-12.42804 -24.98756)" style="fill:#282425">
</path>
<path d="M447.735,102.36341l-0.01439-.01494a9.20131,9.20131,0,0,0-6.60671-2.741H396.89225a9.53833,9.53833,0,0,0-.13838,19.07566l44.36,0.00111a9.18787,9.18787,0,0,0,6.61446-2.751,9.60142,9.60142,0,0,0,2.74652-6.96428A9.19386,9.19386,0,0,0,447.735,102.36341Z" transform="translate(-12.42804 -24.98756)" style="fill:#282425">
</path>
<path d="M509.21025,58.256a8.38423,8.38423,0,0,0-6.71963-2.85889,9.59232,9.59232,0,0,0-6.95985,2.746,9.74964,9.74964,0,0,0,.00775,13.59036l33.00725,32.72216a6.37422,6.37422,0,0,1,.01976,9.03385l-33.037,33.03941a9.75329,9.75329,0,0,0,.00554,13.58649l0.414,0.35093a11.26477,11.26477,0,0,0,6.5425,2.39117,9.16518,9.16518,0,0,0,6.60892-2.74763L555.7414,113.47a6.37422,6.37422,0,0,0-.01607-9.03071Z" transform="translate(-12.42804 -24.98756)" style="fill:#282425">
</path>
<path d="M600.41955,65.06907a9.37937,9.37937,0,0,0-2.74984-6.78771,9.59431,9.59431,0,0,0-6.96317-2.74984,8.3857,8.3857,0,0,0-6.71963,2.85778L556.92328,85.211a6.37422,6.37422,0,0,0-.02111,9.03387l4.5625,4.56417a6.37422,6.37422,0,0,0,8.99559.02048l27.19948-26.96278A9.35422,9.35422,0,0,0,600.41955,65.06907Z" transform="translate(-12.42804 -24.98756)" style="fill:#282425">
</path>
<path d="M597.69108,146.42484l-27.15989-27.285-0.0395-.03918a6.37422,6.37422,0,0,0-8.99508.0177l-4.56419,4.56252a6.37422,6.37422,0,0,0,.01829,9.03437h0l27.26292,27.38241a9.75193,9.75193,0,0,0,13.58538.01,9.59431,9.59431,0,0,0,2.74984-6.96317A8.3857,8.3857,0,0,0,597.69108,146.42484Z" transform="translate(-12.42804 -24.98756)" style="fill:#282425">
</path>
<path d="M51.09215,87.36685A21.02029,21.02029,0,0,1,30,64.81363,21.37119,21.37119,0,0,1,50.45607,45.116,20.99922,20.99922,0,0,1,72.2079,66.51411,20.7,20.7,0,0,1,51.09215,87.36685Z" transform="translate(-12.42804 -24.98756)" style="fill:#282425">
</path>
<path d="M99.83357,72.527A23.64479,23.64479,0,0,1,76.108,47.15792a24.0395,24.0395,0,0,1,23.01011-22.157,23.62109,23.62109,0,0,1,24.46767,24.06982A23.28456,23.28456,0,0,1,99.83357,72.527Z" transform="translate(-12.42804 -24.98756)" style="fill:#d1233f">
</path>
<path d="M31.02874,125.3998A18.48943,18.48943,0,0,1,12.47611,105.562,18.79809,18.79809,0,0,1,30.46925,88.23595a18.4709,18.4709,0,0,1,19.1329,18.8218A18.20775,18.20775,0,0,1,31.02874,125.3998Z" transform="translate(-12.42804 -24.98756)" style="fill:#282425">
</path>
<path d="M56.60421,147.62748A15.62543,15.62543,0,0,1,40.73062,163.214,15.81116,15.81116,0,1,1,56.60421,147.62748Z" transform="translate(-12.42804 -24.98756)" style="fill:#282425">
</path>
<path d="M69.125,155.37589a12.93276,12.93276,0,0,1,12.96582,12.30724,13.21005,13.21005,0,1,1-26.38731.62151A13.17872,13.17872,0,0,1,69.125,155.37589Z" transform="translate(-12.42804 -24.98756)" style="fill:#282425">
</path>
<path d="M99.9718,163.524a10.39105,10.39105,0,0,1,10.3783,10.82772,10.65492,10.65492,0,0,1-10.323,10.24709,10.46613,10.46613,0,0,1-10.749-10.667A10.30543,10.30543,0,0,1,99.9718,163.524Z" transform="translate(-12.42804 -24.98756)" style="fill:#282425">
</path>
<path d="M131.90255,169.30642a7.754,7.754,0,0,1-7.63592,7.23334A7.90352,7.90352,0,1,1,131.90255,169.30642Z" transform="translate(-12.42804 -24.98756)" style="fill:#282425">
</path>
<path d="M162.09927,125.622a5.48325,5.48325,0,0,1,3.47575,3.64986,5.24773,5.24773,0,0,1-5.10026,6.61742,5.37445,5.37445,0,0,1-5.24949-4.76234A5.29179,5.29179,0,0,1,162.09927,125.622Z" transform="translate(-12.42804 -24.98756)" style="fill:#282425">
</path>
<path d="M147.39768,158.531a5.37991,5.37991,0,0,1-5.36831,5.26291,5.21009,5.21009,0,0,1-5.11554-5.14217A5.098,5.098,0,0,1,142.076,153.305,5.1632,5.1632,0,0,1,147.39768,158.531Z" transform="translate(-12.42804 -24.98756)" style="fill:#282425">
</path>
<path d="M158.34727,145.48409a5.00281,5.00281,0,0,1-5.44921,5.01438,5.263,5.263,0,0,1-5.03592-5.21264,5.32262,5.32262,0,0,1,5.39342-5.2134A5.102,5.102,0,0,1,158.34727,145.48409Z" transform="translate(-12.42804 -24.98756)" style="fill:#282425">
</path>
</svg>