<?xml version="1.0" encoding="UTF-8"?>
<svg xmlns="http://www.w3.org/2000/svg" xmlns:xlink="http://www.w3.org/1999/xlink" width="612pt" height="792pt" viewBox="0 0 612 792" version="1.1">
<g id="surface1">
<path style=" stroke:none;fill-rule:nonzero;fill:rgb(92.89856%,10.998535%,14.099121%);fill-opacity:1;" d="M 68.976563 342.230469 L 75.164063 342.230469 C 79.691406 342.230469 83.363281 345.902344 83.363281 350.429688 L 83.363281 389.863281 L 111.273438 389.863281 C 116.707031 389.863281 121.113281 392.429688 121.113281 395.597656 C 121.113281 398.761719 116.707031 401.328125 111.273438 401.328125 L 68.976563 401.328125 C 67.539063 401.328125 66.191406 400.957031 65.015625 400.308594 C 62.457031 399.273438 60.777344 397.546875 60.777344 395.597656 C 60.777344 395.269531 60.777344 350.429688 60.777344 350.429688 C 60.777344 345.902344 64.449219 342.230469 68.976563 342.230469 "/>
<path style=" stroke:none;fill-rule:nonzero;fill:rgb(92.89856%,10.998535%,14.099121%);fill-opacity:1;" d="M 207.09375 341.988281 L 212.480469 341.988281 C 217.371094 341.988281 221.339844 345.949219 221.339844 350.84375 L 221.339844 378.089844 C 221.339844 391.359375 200.414063 402.117188 175.128906 402.117188 C 149.839844 402.117188 129.34375 391.359375 129.34375 378.089844 C 129.34375 376.859375 129.34375 350.84375 129.34375 350.84375 C 129.34375 345.949219 133.378906 341.988281 138.269531 341.988281 L 143.65625 341.988281 C 148.546875 341.988281 152.511719 345.949219 152.511719 350.84375 L 152.511719 377.0625 C 152.511719 384.496094 162.601563 390.519531 175.226563 390.519531 C 187.851563 390.519531 198.238281 384.402344 198.238281 376.816406 L 198.238281 350.84375 C 198.238281 345.949219 202.203125 341.988281 207.09375 341.988281 "/>
<path style=" stroke:none;fill-rule:nonzero;fill:rgb(92.89856%,10.998535%,14.099121%);fill-opacity:1;" d="M 252.511719 343.71875 L 273.019531 358.941406 L 294.636719 343.578125 C 296.582031 341.972656 300.320313 341.195313 304.761719 341.976563 C 310.320313 342.960938 314.023438 345.566406 313.554688 348.226563 C 313.386719 349.179688 312.9375 349.960938 311.945313 350.878906 L 286.964844 369.292969 L 307.925781 384.851563 L 317.222656 391.753906 L 317.628906 392.136719 C 318.621094 393.054688 319.066406 393.835938 319.234375 394.789063 C 319.703125 397.445313 316.003906 400.058594 310.445313 401.035156 C 306.585938 401.71875 303.257813 401.21875 301.171875 400.023438 L 273.3125 379.628906 L 250.796875 396.886719 L 246.832031 399.890625 C 244.886719 401.496094 241.144531 402.277344 236.703125 401.492188 C 231.144531 400.511719 227.441406 397.902344 227.910156 395.242188 C 228.078125 394.289063 228.527344 393.511719 229.519531 392.59375 L 239.222656 385.308594 L 259.488281 369.25 L 235.199219 351.019531 C 234.210938 350.097656 233.761719 349.320313 233.59375 348.367188 C 233.125 345.707031 236.824219 343.097656 242.386719 342.117188 C 246.828125 341.335938 250.566406 342.113281 252.511719 343.71875 "/>
<path style=" stroke:none;fill-rule:evenodd;fill:rgb(92.89856%,10.998535%,14.099121%);fill-opacity:1;" d="M 364.757813 371.109375 C 364.757813 366.15625 368.773438 362.140625 373.726563 362.140625 C 378.679688 362.140625 382.691406 366.15625 382.691406 371.109375 C 382.691406 376.058594 378.679688 380.074219 373.726563 380.074219 C 368.773438 380.074219 364.757813 376.058594 364.757813 371.109375 "/>
<path style=" stroke:none;fill-rule:nonzero;fill:rgb(92.89856%,10.998535%,14.099121%);fill-opacity:1;" d="M 355.300781 353.832031 L 355.300781 388.707031 L 383.867188 388.707031 C 389.300781 388.707031 393.707031 391.273438 393.707031 394.4375 C 393.707031 397.605469 389.300781 400.171875 383.867188 400.171875 L 340.914063 400.171875 C 339.480469 400.171875 338.128906 399.800781 336.953125 399.152344 C 334.394531 398.117188 332.71875 396.390625 332.71875 394.4375 L 332.71875 349.582031 C 332.71875 348.96875 332.882813 348.378906 333.1875 347.820313 C 334.320313 344.644531 337.351563 342.371094 340.914063 342.371094 L 342.558594 342.367188 L 347.101563 342.371094 L 382.773438 342.367188 C 388.210938 342.367188 392.613281 344.933594 392.613281 348.101563 C 392.613281 351.265625 388.210938 353.832031 382.773438 353.832031 L 355.300781 353.832031 "/>
<path style=" stroke:none;fill-rule:nonzero;fill:rgb(92.89856%,10.998535%,14.099121%);fill-opacity:1;" d="M 410.460938 342.230469 L 416.648438 342.230469 C 421.175781 342.230469 424.847656 345.902344 424.847656 350.429688 L 424.847656 389.863281 L 452.757813 389.863281 C 458.191406 389.863281 462.597656 392.429688 462.597656 395.597656 C 462.597656 398.761719 458.191406 401.328125 452.757813 401.328125 L 410.460938 401.328125 C 409.023438 401.328125 407.675781 400.957031 406.5 400.308594 C 403.9375 399.273438 402.261719 397.546875 402.261719 395.597656 C 402.261719 395.269531 402.261719 350.429688 402.261719 350.429688 C 402.261719 345.902344 405.933594 342.230469 410.460938 342.230469 "/>
<path style=" stroke:none;fill-rule:nonzero;fill:rgb(92.89856%,10.998535%,14.099121%);fill-opacity:1;" d="M 479.578125 342.230469 L 485.765625 342.230469 C 490.292969 342.230469 493.964844 345.902344 493.964844 350.429688 L 493.964844 389.863281 L 521.875 389.863281 C 527.308594 389.863281 531.714844 392.429688 531.714844 395.597656 C 531.714844 398.761719 527.308594 401.328125 521.875 401.328125 L 479.578125 401.328125 C 478.144531 401.328125 476.792969 400.957031 475.617188 400.308594 C 473.058594 399.273438 471.382813 397.546875 471.382813 395.597656 C 471.382813 395.269531 471.382813 350.429688 471.382813 350.429688 C 471.382813 345.902344 475.050781 342.230469 479.578125 342.230469 "/>
</g>
</svg>
